<?xml version="1.0" encoding="UTF-8"?> <svg xmlns="http://www.w3.org/2000/svg" width="780" height="540" viewBox="0 0 780 540"><g fill="none" fill-rule="evenodd" transform="translate(3 29)"><g fill="#000" fill-rule="nonzero" transform="translate(145 339)"><circle cx="126.3" cy="64.8" r="1"></circle><circle cx="121.4" cy="64.8" r="1"></circle><circle cx="116.6" cy="64.8" r="1"></circle><circle cx="111.8" cy="64.8" r="1"></circle><circle cx="106.9" cy="64.8" r="1"></circle><circle cx="102.1" cy="64.8" r="1"></circle><circle cx="97.3" cy="64.8" r="1"></circle><circle cx="92.5" cy="64.8" r="1"></circle><circle cx="87.6" cy="64.8" r="1"></circle><circle cx="82.8" cy="64.8" r="1"></circle><circle cx="78" cy="64.8" r="1"></circle><circle cx="73.1" cy="64.8" r="1"></circle><circle cx="68.3" cy="64.8" r="1"></circle><circle cx="63.5" cy="64.8" r="1"></circle><circle cx="58.6" cy="64.8" r="1"></circle><circle cx="53.8" cy="64.8" r="1"></circle><circle cx="49" cy="64.8" r="1"></circle><circle cx="44.1" cy="64.8" r="1"></circle><circle cx="39.3" cy="64.8" r="1"></circle><circle cx="34.5" cy="64.8" r="1"></circle><circle cx="29.7" cy="64.8" r="1"></circle><circle cx="24.8" cy="64.8" r="1"></circle><circle cx="20" cy="64.8" r="1"></circle><circle cx="15.2" cy="64.8" r="1"></circle><circle cx="10.3" cy="64.8" r="1"></circle><circle cx="126.3" cy="60.3" r="1"></circle><circle cx="121.4" cy="60.3" r="1"></circle><circle cx="116.6" cy="60.3" r="1"></circle><circle cx="111.8" cy="60.3" r="1"></circle><circle cx="106.9" cy="60.3" r="1"></circle><circle cx="102.1" cy="60.3" r="1"></circle><circle cx="97.3" cy="60.3" r="1"></circle><circle cx="92.5" cy="60.3" r="1"></circle><circle cx="87.6" cy="60.3" r="1"></circle><circle cx="82.8" cy="60.3" r="1"></circle><circle cx="78" cy="60.3" r="1"></circle><circle cx="73.1" cy="60.3" r="1"></circle><circle cx="68.3" cy="60.3" r="1"></circle><circle cx="63.5" cy="60.3" r="1"></circle><circle cx="58.6" cy="60.3" r="1"></circle><circle cx="53.8" cy="60.3" r="1"></circle><circle cx="49" cy="60.3" r="1"></circle><circle cx="44.1" cy="60.3" r="1"></circle><circle cx="39.3" cy="60.3" r="1"></circle><circle cx="34.5" cy="60.3" r="1"></circle><circle cx="29.7" cy="60.3" r="1"></circle><circle cx="24.8" cy="60.3" r="1"></circle><circle cx="20" cy="60.3" r="1"></circle><circle cx="15.2" cy="60.3" r="1"></circle><circle cx="10.3" cy="60.3" r="1"></circle><circle cx="126.3" cy="55.7" r="1"></circle><circle cx="121.4" cy="55.7" r="1"></circle><circle cx="116.6" cy="55.7" r="1"></circle><circle cx="111.8" cy="55.7" r="1"></circle><circle cx="106.9" cy="55.7" r="1"></circle><circle cx="102.1" cy="55.7" r="1"></circle><circle cx="97.3" cy="55.7" r="1"></circle><circle cx="92.5" cy="55.7" r="1"></circle><circle cx="87.6" cy="55.7" r="1"></circle><circle cx="82.8" cy="55.7" r="1"></circle><circle cx="78" cy="55.7" r="1"></circle><circle cx="73.1" cy="55.7" r="1"></circle><circle cx="68.3" cy="55.7" r="1"></circle><circle cx="63.5" cy="55.7" r="1"></circle><circle cx="58.6" cy="55.7" r="1"></circle><circle cx="53.8" cy="55.7" r="1"></circle><circle cx="49" cy="55.7" r="1"></circle><circle cx="44.1" cy="55.7" r="1"></circle><circle cx="39.3" cy="55.7" r="1"></circle><circle cx="34.5" cy="55.7" r="1"></circle><circle cx="29.7" cy="55.7" r="1"></circle><circle cx="24.8" cy="55.7" r="1"></circle><circle cx="20" cy="55.7" r="1"></circle><circle cx="15.2" cy="55.7" r="1"></circle><circle cx="126.3" cy="51.2" r="1"></circle><circle cx="121.4" cy="51.2" r="1"></circle><circle cx="116.6" cy="51.2" r="1"></circle><circle cx="111.8" cy="51.2" r="1"></circle><circle cx="106.9" cy="51.2" r="1"></circle><circle cx="102.1" cy="51.2" r="1"></circle><circle cx="97.3" cy="51.2" r="1"></circle><circle cx="92.5" cy="51.2" r="1"></circle><circle cx="87.6" cy="51.2" r="1"></circle><circle cx="82.8" cy="51.2" r="1"></circle><circle cx="78" cy="51.2" r="1"></circle><circle cx="73.1" cy="51.2" r="1"></circle><circle cx="68.3" cy="51.2" r="1"></circle><circle cx="63.5" cy="51.2" r="1"></circle><circle cx="58.6" cy="51.2" r="1"></circle><circle cx="53.8" cy="51.2" r="1"></circle><circle cx="49" cy="51.2" r="1"></circle><circle cx="44.1" cy="51.2" r="1"></circle><circle cx="39.3" cy="51.2" r="1"></circle><circle cx="34.5" cy="51.2" r="1"></circle><circle cx="29.7" cy="51.2" r="1"></circle><circle cx="24.8" cy="51.2" r="1"></circle><circle cx="126.3" cy="46.6" r="1"></circle><circle cx="121.4" cy="46.6" r="1"></circle><circle cx="116.6" cy="46.6" r="1"></circle><circle cx="111.8" cy="46.6" r="1"></circle><circle cx="106.9" cy="46.6" r="1"></circle><circle cx="102.1" cy="46.6" r="1"></circle><circle cx="97.3" cy="46.6" r="1"></circle><circle cx="92.5" cy="46.6" r="1"></circle><circle cx="87.6" cy="46.6" r="1"></circle><circle cx="82.8" cy="46.6" r="1"></circle><circle cx="78" cy="46.6" r="1"></circle><circle cx="73.1" cy="46.6" r="1"></circle><circle cx="68.3" cy="46.6" r="1"></circle><circle cx="63.5" cy="46.6" r="1"></circle><circle cx="58.6" cy="46.6" r="1"></circle><circle cx="53.8" cy="46.6" r="1"></circle><circle cx="49" cy="46.6" r="1"></circle><circle cx="44.1" cy="46.6" r="1"></circle><circle cx="39.3" cy="46.6" r="1"></circle><circle cx="34.5" cy="46.6" r="1"></circle><circle cx="29.7" cy="46.6" r="1"></circle><circle cx="126.3" cy="42.1" r="1"></circle><circle cx="121.4" cy="42.1" r="1"></circle><circle cx="116.6" cy="42.1" r="1"></circle><circle cx="111.8" cy="42.1" r="1"></circle><circle cx="106.9" cy="42.1" r="1"></circle><circle cx="102.1" cy="42.1" r="1"></circle><circle cx="97.3" cy="42.1" r="1"></circle><circle cx="92.5" cy="42.1" r="1"></circle><circle cx="87.6" cy="42.1" r="1"></circle><circle cx="82.8" cy="42.1" r="1"></circle><circle cx="78" cy="42.1" r="1"></circle><circle cx="73.1" cy="42.1" r="1"></circle><circle cx="68.3" cy="42.1" r="1"></circle><circle cx="63.5" cy="42.1" r="1"></circle><circle cx="58.6" cy="42.1" r="1"></circle><circle cx="53.8" cy="42.1" r="1"></circle><circle cx="49" cy="42.1" r="1"></circle><circle cx="44.1" cy="42.1" r="1"></circle><circle cx="39.3" cy="42.1" r="1"></circle><circle cx="126.3" cy="37.5" r="1"></circle><circle cx="121.4" cy="37.5" r="1"></circle><circle cx="116.6" cy="37.5" r="1"></circle><circle cx="111.8" cy="37.5" r="1"></circle><circle cx="106.9" cy="37.5" r="1"></circle><circle cx="102.1" cy="37.5" r="1"></circle><circle cx="97.3" cy="37.5" r="1"></circle><circle cx="92.4" cy="37.5" r="1"></circle><circle cx="87.6" cy="37.5" r="1"></circle><circle cx="82.8" cy="37.5" r="1"></circle><circle cx="78" cy="37.5" r="1"></circle><circle cx="73.1" cy="37.5" r="1"></circle><circle cx="68.3" cy="37.5" r="1"></circle><circle cx="63.5" cy="37.5" r="1"></circle><circle cx="58.6" cy="37.5" r="1"></circle><circle cx="53.8" cy="37.5" r="1"></circle><circle cx="49" cy="37.5" r="1"></circle><circle cx="126.3" cy="33" r="1"></circle><circle cx="121.4" cy="33" r="1"></circle><circle cx="116.6" cy="33" r="1"></circle><circle cx="111.8" cy="33" r="1"></circle><circle cx="106.9" cy="33" r="1"></circle><circle cx="102.1" cy="33" r="1"></circle><circle cx="97.3" cy="33" r="1"></circle><circle cx="92.4" cy="33" r="1"></circle><circle cx="87.6" cy="33" r="1"></circle><circle cx="82.8" cy="33" r="1"></circle><circle cx="78" cy="33" r="1"></circle><circle cx="73.1" cy="33" r="1"></circle><circle cx="68.3" cy="33" r="1"></circle><circle cx="63.5" cy="33" r="1"></circle><circle cx="58.6" cy="33" r="1"></circle><circle cx="126.3" cy="28.4" r="1"></circle><circle cx="121.4" cy="28.4" r="1"></circle><circle cx="116.6" cy="28.4" r="1"></circle><circle cx="111.8" cy="28.4" r="1"></circle><circle cx="106.9" cy="28.4" r="1"></circle><circle cx="102.1" cy="28.4" r="1"></circle><circle cx="97.3" cy="28.4" r="1"></circle><circle cx="92.4" cy="28.4" r="1"></circle><circle cx="87.6" cy="28.4" r="1"></circle><circle cx="82.8" cy="28.4" r="1"></circle><circle cx="78" cy="28.4" r="1"></circle><circle cx="73.1" cy="28.4" r="1"></circle><circle cx="68.3" cy="28.4" r="1"></circle><circle cx="126.3" cy="23.9" r="1"></circle><circle cx="121.4" cy="23.9" r="1"></circle><circle cx="116.6" cy="23.9" r="1"></circle><circle cx="111.8" cy="23.9" r="1"></circle><circle cx="106.9" cy="23.9" r="1"></circle><circle cx="102.1" cy="23.9" r="1"></circle><circle cx="97.3" cy="23.9" r="1"></circle><circle cx="92.4" cy="23.9" r="1"></circle><circle cx="87.6" cy="23.9" r="1"></circle><circle cx="82.8" cy="23.9" r="1"></circle><circle cx="78" cy="23.9" r="1"></circle><circle cx="126.3" cy="19.3" r="1"></circle><circle cx="121.4" cy="19.3" r="1"></circle><circle cx="116.6" cy="19.3" r="1"></circle><circle cx="111.8" cy="19.3" r="1"></circle><circle cx="106.9" cy="19.3" r="1"></circle><circle cx="102.1" cy="19.3" r="1"></circle><circle cx="97.3" cy="19.3" r="1"></circle><circle cx="92.4" cy="19.3" r="1"></circle><circle cx="87.6" cy="19.3" r="1"></circle><circle cx="126.3" cy="14.8" r="1"></circle><circle cx="121.4" cy="14.8" r="1"></circle><circle cx="116.6" cy="14.8" r="1"></circle><circle cx="111.8" cy="14.8" r="1"></circle><circle cx="106.9" cy="14.8" r="1"></circle><circle cx="102.1" cy="14.8" r="1"></circle><circle cx="97.3" cy="14.8" r="1"></circle><circle cx="126.3" cy="10.2" r="1"></circle><circle cx="121.4" cy="10.2" r="1"></circle><circle cx="116.6" cy="10.2" r="1"></circle><circle cx="111.8" cy="10.2" r="1"></circle><circle cx="106.9" cy="10.2" r="1"></circle><circle cx="126.3" cy="5.7" r="1"></circle><circle cx="121.4" cy="5.7" r="1"></circle><circle cx="116.6" cy="5.7" r="1"></circle><circle cx="126.3" cy="1.1" r="1"></circle><circle cx="5.5" cy="64.8" r="1"></circle><circle cx=".7" cy="64.8" r="1"></circle><circle cx="5.5" cy="60.3" r="1"></circle></g><polygon fill="#000" fill-rule="nonzero" points="29 406.1 278 406.1 277 407.1 29 407.1"></polygon><polyline fill="#DAD3ED" fill-rule="nonzero" points="605 192.1 712 192.1 672.5 238.6 713.5 260.1 758.5 200.6 739 150.6 604 150.6"></polyline><path fill="#000" fill-rule="nonzero" d="M713.5,260.6 C713.4,260.6 713.3,260.6 713.3,260.5 L672.3,239 C672.1,238.9 672,238.6 672.1,238.3 C672.1,238.3 672.1,238.2 672.2,238.2 L711,192.5 L605,192.5 C604.7,192.5 604.5,192.3 604.5,192 C604.5,191.7 604.7,191.5 605,191.5 L712,191.5 C712.3,191.5 712.5,191.7 712.5,192 C712.5,192.1 712.5,192.2 712.4,192.3 L673.3,238.3 L713.4,259.3 L758,200.4 L738.7,151 L604,151 C603.7,151 603.5,150.8 603.5,150.5 C603.5,150.2 603.7,150 604,150 L739,150 C739.2,150 739.4,150.1 739.5,150.3 L759,200.3 C759.1,200.5 759,200.6 758.9,200.8 L713.9,260.3 C713.8,260.5 713.6,260.6 713.5,260.6 Z"></path><path fill="#000" fill-rule="nonzero" d="M614.3,151 L629,191.7 L613.7,191.7 C613.6,191.6 616,149.3 614.3,151 Z"></path><polyline fill="#DAD3ED" fill-rule="nonzero" points="281 256.1 186.5 256.1 204 196.6 158.5 187.6 136 259.6 160.5 299.6 281 299.6"></polyline><path fill="#000" fill-rule="nonzero" d="M281,300.1 L160.5,300.1 C160.3,300.1 160.2,300 160.1,299.9 L135.6,259.9 C135.5,259.8 135.5,259.6 135.5,259.5 L158,187.5 C158.1,187.3 158.3,187.1 158.6,187.2 L204.1,196.2 C204.4,196.3 204.5,196.5 204.5,196.8 C204.5,196.8 204.5,196.8 204.5,196.8 L187.2,255.7 L281,255.7 C281.3,255.7 281.5,255.9 281.5,256.2 C281.5,256.5 281.3,256.7 281,256.7 L186.5,256.7 C186.2,256.7 186,256.5 186,256.2 C186,256.2 186,256.1 186,256.1 L203.4,197.1 L158.9,188.3 L136.6,259.7 L160.8,299.3 L281,299.3 C281.3,299.3 281.5,299.5 281.5,299.8 C281.5,300.1 281.2,300.1 281,300.1 L281,300.1 Z"></path><circle cx="162" cy="271.1" r="28.5" fill="#F9F4EC" fill-rule="nonzero"></circle><path fill="#000" fill-rule="nonzero" d="M162,300.1 C146,300.1 133,287.1 133,271.1 C133,255.1 146,242.1 162,242.1 C178,242.1 191,255.1 191,271.1 L191,271.1 C191,287.1 178,300.1 162,300.1 Z M162,243.1 C146.5,243.1 134,255.6 134,271.1 C134,286.6 146.5,299.1 162,299.1 C177.5,299.1 190,286.6 190,271.1 C190,255.6 177.4,243.1 162,243.1 Z"></path><path fill="#000" fill-rule="nonzero" d="M162,287.1 C161.7,287.1 161.5,286.9 161.5,286.6 L161.5,255.6 C161.5,255.3 161.7,255.1 162,255.1 C162.3,255.1 162.5,255.3 162.5,255.6 L162.5,286.6 C162.5,286.9 162.2,287.1 162,287.1 Z"></path><path d="M146.5,271.1 L177.5,271.1"></path><path fill="#000" fill-rule="nonzero" d="M177.5,271.6 L146.5,271.6 C146.2,271.6 146,271.4 146,271.1 C146,270.8 146.2,270.6 146.5,270.6 L177.5,270.6 C177.8,270.6 178,270.8 178,271.1 C178,271.4 177.7,271.6 177.5,271.6 Z"></path><rect width="340.1" height="340.1" x="274.2" y="99.3" fill="#DAD3ED" fill-rule="nonzero"></rect><path fill="#000" fill-rule="nonzero" d="M614.3,439.9 L274.2,439.9 C273.9,439.9 273.7,439.7 273.7,439.4 L273.7,99.3 C273.7,99 273.9,98.8 274.2,98.8 L614.3,98.8 C614.6,98.8 614.8,99 614.8,99.3 L614.8,439.4 C614.8,439.7 614.5,439.9 614.3,439.9 Z M274.7,438.9 L613.8,438.9 L613.8,99.8 L274.7,99.8 L274.7,438.9 Z"></path><polygon fill="#B9ADDC" fill-rule="nonzero" points="462.3 310 456.3 328 583 395.3 601 352"></polygon><rect width="93.4" height="9.2" x="415.13" y="171.256" fill="#B9ADDC" fill-rule="nonzero" transform="rotate(-54.627 461.83 175.856)"></rect><path fill="#B9ADDC" fill-rule="nonzero" d="M469.4,100 C482.1,131.8 518.2,147.2 550,134.5 C565.7,128.2 578.2,115.7 584.5,100 L469.4,100 Z"></path><circle cx="492.3" cy="134.1" r="5" fill="#B9ADDC" fill-rule="nonzero"></circle><path fill="#B9ADDC" fill-rule="nonzero" d="M274.3 419.6C280.5 417.2 287 415.7 293.6 414.9L290.9 403.9 274.2 408.9 274.3 419.6zM586.3 242.6C586.3 242.6 511.3 252.6 500.3 252.1 489.3 251.6 444.3 242.1 444.3 242.1 434.8 232.1 428.8 232.1 426.3 232.1 423.8 232.1 422.3 235.1 422.3 235.1L422.6 235.3C418.7 235.7 414.6 236.4 414.6 236.4 414.6 236.4 390.5 214.5 376.9 199.7L395.4 185.6C395.4 185.4 385.7 188.9 371.9 193.9 371.1 193 370.5 192.1 369.9 191.3 359.6 176.7 350.4 161.3 342.4 145.3L322.6 167.8C322.6 167.8 340.1 194.8 345.1 201 345.6 201.7 346.2 202.3 346.8 203 313.5 215.3 275.4 229.5 275.4 229.5L275.4 276.8 358 214C358.9 214.7 359.9 215.4 360.9 216 364 217.9 397.6 238.2 410.3 245.7 409.5 245.7 408.7 245.6 407.9 245.5 407.9 245.5 407.4 247.5 411.4 250.5 415.4 253.6 420.3 255.2 425.4 255L435.9 255C435.9 255 496.9 272.5 505.4 274 513.9 275.5 563.9 276.5 574.9 276.5 585.9 276.5 588.4 280 588.4 280L586.3 242.6z"></path><path fill="#B9ADDC" fill-rule="nonzero" d="M299.5,300.1 C327.5,277.1 403.5,262.6 403.5,262.6 L439,356.6 C384.5,366.1 334,392.1 334,392.1 L299.5,300.1 Z"></path><rect width="171.701" height="171.701" x="473.822" y="176.787" fill="#F9F4EC" fill-rule="nonzero" transform="rotate(-71.639 559.672 262.638)"></rect><path fill="#000" fill-rule="nonzero" d="M614.1,371.6 L613.9,371.6 L451,317.5 C450.7,317.4 450.6,317.1 450.7,316.9 L504.7,154 C504.8,153.7 505.1,153.6 505.3,153.7 L668.2,207.8 C668.5,207.9 668.6,208.2 668.5,208.4 L614.4,371.3 C614.5,371.5 614.3,371.6 614.1,371.6 L614.1,371.6 Z M451.8,316.7 L613.8,370.5 L667.6,208.5 L505.6,154.7 L451.8,316.7 Z"></path><path fill="#F9F4EC" fill-rule="nonzero" d="M302.5,286.1 C330.5,263.1 406.5,248.6 406.5,248.6 L442,342.6 C387.5,352.1 337,378.1 337,378.1 L302.5,286.1 Z"></path><path fill="#000" fill-rule="nonzero" d="M337,378.6 C336.8,378.6 336.6,378.5 336.5,378.3 L302,286.3 C301.9,286.1 302,285.9 302.2,285.7 C316.7,273.8 344.3,264.2 364.9,258.2 C387.2,251.8 406.2,248.1 406.4,248.1 C406.6,248.1 406.9,248.2 407,248.4 L442.5,342.4 C442.6,342.7 442.5,342.9 442.2,343 C442.2,343 442.1,343 442.1,343 C388.3,352.4 337.8,378.2 337.2,378.5 C337.1,378.6 337,378.6 337,378.6 Z M303.1,286.3 L337.3,377.4 C342.7,374.7 390.5,351.2 441.3,342.2 L406.2,249.2 C403.3,249.8 385.6,253.3 365.2,259.2 C344.8,265.1 317.5,274.6 303.1,286.3 Z"></path><path fill="#FFF" fill-rule="nonzero" d="M408,296.6 C406.9,296.5 406.1,295.5 406.2,294.3 C406.3,293.6 406.7,293 407.3,292.7 C411.2,290.6 422.8,286.5 425,287.1 C429,288.1 439,291.3 439,291.3 L485,276.6 L533.5,238.6 L561,261.6 C561,261.6 514.2,285.6 507,290.1 C499,295.1 487.5,296.1 475,298.1 C465.6,299.6 428,306.6 428,306.6 L424,294.6 C420.4,293.7 411,297 408,296.6 Z"></path><path fill="#000" fill-rule="nonzero" d="M428,307.1 C427.8,307.1 427.6,307 427.5,306.8 L423.6,295.1 C421.6,294.7 418,295.5 414.7,296.2 C411.8,296.8 409.3,297.3 407.9,297.2 L407.9,297.2 C406.5,297.1 405.4,295.9 405.5,294.5 C405.5,293.5 406.1,292.7 407,292.3 C410.9,290.2 422.6,286 425.1,286.6 C428.8,287.5 437.7,290.3 439,290.7 L484.8,276.1 L533.2,238.2 C533.4,238.1 533.6,238.1 533.8,238.2 L561.3,261.2 C561.5,261.4 561.5,261.7 561.4,261.9 C561.4,262 561.3,262 561.2,262 C560.7,262.2 514.4,286 507.2,290.5 C500.4,294.8 490.9,296.2 480.9,297.7 C479,298 477,298.3 475.1,298.6 C465.7,300.1 428.4,307 428,307.1 L428,307.1 Z M422.4,294 C423,294 423.5,294 424.1,294.2 C424.3,294.2 424.4,294.4 424.4,294.5 L428.3,306.1 C432.5,305.3 466.1,299.1 474.9,297.7 C476.9,297.4 478.8,297.1 480.8,296.8 C491.2,295.3 500.1,293.9 506.8,289.8 C513.5,285.7 554.4,264.6 560.2,261.6 L533.5,239.3 L485.3,277 C485.3,277 485.2,277.1 485.1,277.1 L439.1,291.8 C439,291.8 438.9,291.8 438.8,291.8 C438.7,291.8 428.8,288.6 424.8,287.6 C422.8,287.1 411.3,291.1 407.4,293.2 C406.6,293.6 406.4,294.5 406.8,295.3 C407,295.8 407.5,296.1 408,296.1 C409.2,296.3 411.8,295.7 414.4,295.2 C417.1,294.6 419.7,294.1 422.4,294 L422.4,294 Z"></path><path fill="#0C0A08" fill-rule="nonzero" d="M485,276.6 L483.8,276.9 L500.1,293.2 C502.5,292.4 504.8,291.4 506.9,290.1 C511.6,287.2 533.1,276 547.5,268.5 L548.5,251.2 L533.4,238.5 L485,276.6 Z"></path><path fill="#000" fill-rule="nonzero" d="M608.5,260.1 C613,234.6 592.2,226.6 581.5,226.6 L540.9,223.6 C520.2,222.4 507.8,243.5 509.8,257.9 L514.4,337.6 L587.6,362.3 L608.5,260.1 Z"></path><rect width="171.702" height="171.702" x="208.707" y="46.28" fill="#F9F4EC" fill-rule="nonzero" transform="rotate(-19.731 294.558 132.131)"></rect><path fill="#000" fill-rule="nonzero" d="M242.6,242.4 C242.4,242.4 242.2,242.3 242.1,242.1 L184.2,80.5 C184.1,80.2 184.2,80 184.5,79.9 L346.1,22 C346.4,21.9 346.6,22 346.7,22.3 L404.6,183.9 C404.7,184.2 404.6,184.4 404.3,184.5 L242.7,242.4 C242.8,242.4 242.7,242.4 242.6,242.4 Z M185.3,80.6 L243,241.3 L403.7,183.7 L346,23 L185.3,80.6 Z"></path><path fill="#000" fill-rule="nonzero" d="M247,191.1 C235,199.1 225.5,212.6 225.5,212.6 L237.7,248.3 L288,235.1 L290.3,217.6 L247,191.1 Z"></path><path fill="#FFF" fill-rule="nonzero" d="M579,235.6 C579.5,233.8 578.9,200.1 578.9,200.1 L581,196.3 C588.9,191.6 588.8,185.1 585.3,180 L585.3,179.9 L584.9,179.5 C583.6,177.8 582,176.4 580.2,175.2 C577.2,172.6 573.4,169.6 570.2,168.3 C558.8,163.5 561.2,174 561.2,174 C561.6,174.7 562.2,175.3 562.9,175.8 C561.7,177.4 560.8,179.3 560.3,181.2 C558.9,186.4 555.1,187.5 554.8,188.6 C554.5,190 557.6,191.3 557.6,191.3 L554,201.2 C553.4,202.9 556.8,204.9 560.8,205.9 C558.6,210.8 556.6,226.4 553.8,232.9 L561.3,250.4 L579,235.6 Z"></path><path fill="#000" fill-rule="nonzero" d="M561.5,251.1 L561.4,251.1 C561.2,251.1 561.1,251 561.1,250.8 L553.6,233.3 C553.5,233.2 553.5,233 553.6,232.9 C555.1,229.5 556.3,223.6 557.5,218 C558.2,214.1 559.2,210.2 560.4,206.4 C557.9,205.7 554.8,204.4 553.9,202.7 C553.6,202.2 553.6,201.7 553.7,201.2 L557.1,191.7 C556.1,191.2 554.1,190.1 554.4,188.6 C554.5,188.1 555,187.7 555.7,187.1 C557.8,185.7 559.2,183.5 559.8,181.1 C560.3,179.2 561.1,177.4 562.2,175.9 C561.6,175.4 561.1,174.9 560.7,174.3 C560.7,174.3 560.7,174.2 560.6,174.2 C560.6,174 559.6,169.6 562,167.6 C563.7,166.2 566.4,166.3 570.2,167.9 C572.9,169 576.3,171.4 580.4,174.9 C582.2,176.1 583.8,177.6 585.1,179.3 L585.5,179.7 C585.6,179.8 585.6,179.9 585.6,180.1 C587.4,182.6 588.2,185.8 587.6,188.8 C586.9,191.9 584.7,194.6 581.1,196.8 L579.2,200.3 C579.3,204.3 579.8,234.1 579.3,235.9 C579.3,236 579.2,236.1 579.1,236.1 L561.6,251.1 C561.7,251.1 561.6,251.1 561.5,251.1 Z M554.5,233.1 L561.7,249.8 L578.6,235.3 C578.9,233.2 578.7,213.2 578.5,200 C578.5,199.9 578.5,199.8 578.6,199.8 L580.6,196.1 C580.6,196 580.7,196 580.8,195.9 C584.3,193.8 586.3,191.4 587,188.5 C587.5,185.6 586.8,182.7 585,180.4 C585,180.3 584.9,180.3 584.9,180.2 L584.7,180 C583.4,178.3 581.9,176.9 580.1,175.8 C576.1,172.4 572.7,170 570.2,168.9 C566.8,167.5 564.3,167.3 563,168.4 C561.2,169.9 561.8,173.4 561.9,174 C562.3,174.6 562.8,175.2 563.4,175.6 C563.6,175.8 563.7,176.1 563.5,176.3 C563.5,176.3 563.5,176.3 563.5,176.3 C562.3,177.9 561.4,179.6 561,181.6 C560.3,184.2 558.7,186.5 556.5,188.1 C556.1,188.4 555.6,188.8 555.5,189 C555.4,189.6 556.9,190.6 558,191.1 C558.2,191.2 558.4,191.5 558.3,191.7 L554.7,201.6 C554.6,201.8 554.7,202.1 554.8,202.3 C555.4,203.5 558.1,204.8 561.2,205.6 C561.5,205.7 561.6,205.9 561.6,206.2 C561.6,206.2 561.6,206.3 561.6,206.3 C560.6,208.6 559.6,213.3 558.6,218.3 C557.2,223.8 556,229.6 554.5,233.1 L554.5,233.1 Z"></path><polygon fill="#000" fill-rule="nonzero" points="557.5 217.6 573.5 204.1 560.7 205.8"></polygon><path fill="#FFF" fill-rule="nonzero" d="M578.9,200.1 L581,196.3 C588.9,191.6 588.8,185.1 585.3,180 L585.3,179.9 L584.9,179.5 C583.6,177.8 582,176.4 580.2,175.2 C577.2,172.6 573.4,169.6 570.2,168.3 C558.8,163.5 561.2,174 561.2,174 C561.6,174.7 562.2,175.3 562.9,175.8 L562.6,176.1 C566.3,178.8 570.1,181.5 570.1,181.5 L572.4,190.4 C572.4,190.4 577.5,187.9 578.4,192 C578.7,194.9 578.8,197.8 578.6,200.7 L578.9,200.1 Z"></path><path fill="#000" fill-rule="nonzero" d="M578.7,201.3 L578.7,201.3 C578.4,201.3 578.2,201.1 578.2,200.8 C578.3,197.9 578.2,195.1 578,192.2 C577.9,191.5 577.5,190.8 576.8,190.5 C575.5,189.9 573.4,190.6 572.7,191 C572.5,191.1 572.2,191 572,190.8 C572,190.8 572,190.7 572,190.7 L569.7,182 C569,181.5 565.6,179.1 562.3,176.7 C562.1,176.6 562,176.3 562.1,176.1 C561.5,175.6 561,175.1 560.6,174.4 C560.6,174.4 560.6,174.3 560.5,174.3 C560.5,174.1 559.5,169.7 561.9,167.7 C563.6,166.3 566.3,166.4 570.1,168 C572.8,169.1 576.2,171.5 580.3,175 C582.1,176.2 583.7,177.7 585,179.4 L585.4,179.8 C585.5,179.9 585.5,180 585.5,180.2 C587.3,182.7 588.1,185.9 587.5,188.9 C586.8,192 584.6,194.7 581,196.9 L579,200.4 L578.8,201.1 C579,201.1 578.9,201.3 578.7,201.3 Z M575.6,189.2 C576.2,189.2 576.8,189.3 577.3,189.6 C578.2,190.1 578.9,191 579,192 C579.3,194.1 579.3,196.2 579.3,198.4 L580.5,196.1 C580.5,196 580.6,196 580.7,195.9 C584.2,193.8 586.2,191.4 586.9,188.5 C587.4,185.6 586.7,182.7 584.9,180.4 C584.9,180.3 584.8,180.3 584.8,180.2 L584.6,180 C583.3,178.3 581.8,176.9 580,175.8 C576,172.4 572.6,170 570.1,168.9 C566.7,167.5 564.2,167.3 562.9,168.4 C561.1,169.9 561.7,173.4 561.8,174 C562.2,174.6 562.7,175.2 563.3,175.6 C563.4,175.7 563.5,175.8 563.5,175.9 C563.5,176 563.5,176.1 563.5,176.2 C567.1,178.8 570.6,181.3 570.6,181.3 C570.7,181.4 570.8,181.5 570.8,181.6 L573,189.9 C573.8,189.4 574.7,189.3 575.6,189.2 L575.6,189.2 Z"></path><path fill="#FFF" fill-rule="nonzero" d="M341.3,87.6 C341.9,84.7 346.6,79.8 346.6,79.8 L352.1,78.4 C366.1,73.7 370.5,74.8 370.5,74.8 C370.6,76.9 370.4,83.9 373.2,87.7 C374.9,90 371,90.7 371,90.7 C371,90.7 371.5,93 370.8,98.4 C370.3,102.9 363.5,102.2 357.7,99 L331,134.6 L317.699678,131.9 C317.6,132 340.8,90.1 341.3,87.6 Z"></path><path fill="#000" fill-rule="nonzero" d="M331,135.1 L331,135.1 L317.6,132.4 C317.3,132.3 317.2,132.1 317.2,131.8 C317.2,131.8 317.2,131.7 317.3,131.7 C326.6,114.9 340.5,89.3 340.9,87.5 L340.9,87.5 C341.5,84.4 346.1,79.7 346.3,79.5 C346.4,79.4 346.4,79.4 346.5,79.4 L352,78 C365.9,73.3 370.4,74.3 370.6,74.3 C370.8,74.4 371,74.5 371,74.8 L371,75.5 C371,78.1 371.1,84.1 373.6,87.4 C374.1,87.9 374.3,88.7 374,89.4 C373.5,90.3 372.6,90.9 371.5,91.1 C371.7,93.6 371.6,96.1 371.3,98.5 C371.2,99.8 370.4,100.9 369.2,101.5 C366.7,102.8 362.2,102 357.8,99.7 L331.3,135 C331.3,135 331.1,135.1 331,135.1 Z M318.4,131.6 L330.8,134.1 L357.4,98.8 C357.5,98.6 357.8,98.5 358,98.7 C362.1,101 366.6,101.8 368.8,100.7 C369.7,100.3 370.2,99.4 370.3,98.5 C370.7,96 370.8,93.4 370.5,90.9 C370.4,90.6 370.6,90.4 370.9,90.3 C370.9,90.3 370.9,90.3 370.9,90.3 C371.4,90.2 372.8,89.8 373.1,89.1 C373.1,89 373.3,88.7 372.8,88.1 C370.1,84.5 370,78.3 370,75.6 L370,75.4 C368.7,75.3 363.7,75.2 352.3,79.1 L346.9,80.5 C346.2,81.2 342.3,85.4 341.8,87.9 C341.3,90.2 322,125.2 318.4,131.6 Z"></path><path fill="#000" fill-rule="nonzero" d="M321.6,138 C296.2,136.8 282.8,126.6 281.6,126 C293.6,96.7 331.8,73.4 344.5,67.5 C357.6,61.3 372,64.6 373.8,75.8 C365.8,82.8 354.9,86.3 354.9,86.3 C354.9,86.3 349.9,82.2 348,86.2 C347.3,87.7 350.6,93.1 350.6,93.1 C338.3,119.3 325.6,138 321.6,138 Z"></path><polygon fill="#000" fill-rule="nonzero" points="353.7 94.7 358.9 99.2 352.3 106"></polygon><path fill="#000" fill-rule="nonzero" d="M343,135.4 C351,151.4 360.2,166.8 370.5,181.4 C379.5,193.9 415.3,226.4 415.3,226.4 C415.3,226.4 425.1,224.9 428.8,224.9 C432.5,224.9 440.6,233.9 432.6,239.4 C424.6,244.9 419.6,240.6 414.1,237.6 C408.6,234.6 366.6,209.1 361.6,206.1 C356.6,203.1 350.8,197.3 345.8,191.1 C340.8,184.9 323.3,157.9 323.3,157.9 L343,135.4 Z"></path><path fill="#FFF" fill-rule="nonzero" d="M428.7,224.9 C424.9,224.9 415.2,226.4 415.2,226.4 C415.2,226.4 407.2,220 398.2,211.4 L388.4,222.2 C399.5,229.3 410.3,237.5 412.9,239 C418.4,242 424.4,245 432.4,239.5 C440.4,234 432.5,224.9 428.7,224.9 Z"></path><path fill="#000" fill-rule="nonzero" d="M423.6,242.9 C419.4,242.9 415.8,241 412.8,239.3 C411.6,238.7 409,236.8 405.3,234.2 C400.8,231 394.5,226.6 388.2,222.5 C388,222.4 387.9,222 388,221.8 C388,221.8 388,221.8 388.1,221.7 L397.9,210.9 C398,210.8 398.1,210.7 398.2,210.7 C398.3,210.7 398.5,210.7 398.6,210.8 C406.8,218.6 414.2,224.7 415.4,225.6 C416.9,225.4 425.3,224.1 428.8,224.1 C431.1,224.1 434.9,227.2 436.1,231 C437.1,234.3 436,237.3 432.8,239.5 C430.1,241.8 426.9,242.9 423.6,242.9 Z M389.2,222 C395.3,226 401.4,230.2 405.8,233.4 C409.3,235.9 412,237.8 413.2,238.4 C418.4,241.2 424.2,244.4 432.2,238.9 C435.7,236.5 435.7,233.5 435.1,231.5 C434.1,228.2 430.7,225.3 428.7,225.3 C425,225.3 415.4,226.8 415.3,226.8 C415.2,226.8 415,226.8 414.9,226.7 C414.8,226.6 407,220.4 398.2,212 L389.2,222 Z"></path><path fill="#FFF" fill-rule="nonzero" d="M334.4,155.3 C335.2,136 344.1,125.6 338.5,122.7 C324,115.2 300.4,100.2 283.5,122.6 C266.6,145 267.8,168.4 229.5,197.4 L294.7,220.6 C302.7,183.6 334,165.4 334.4,155.3 Z"></path><path fill="#000" fill-rule="nonzero" d="M294.7,221.1 L294.5,221.1 L229.2,197.9 C228.9,197.8 228.8,197.5 228.9,197.3 C228.9,197.2 229,197.1 229.1,197.1 C254.4,177.9 262.2,161.5 269.8,145.5 C273.6,137.5 277.2,129.9 283,122.3 C298.9,101.2 320.8,112.8 335.3,120.5 L338.6,122.3 C342,124 340.8,128 338.9,134.1 C336.6,141 335.2,148.1 334.8,155.4 C334.6,159.3 330.3,164.1 324.3,170.8 C314.1,182.1 300.1,197.6 295.1,220.9 C295.2,221 295,221.2 294.7,221.1 L294.7,221.1 Z M230.5,197.2 L294.3,220 C299.4,196.8 313.4,181.4 323.6,170 C329.2,163.7 333.7,158.8 333.8,155.2 L334.3,155.2 L333.8,155.2 C334.2,147.9 335.6,140.6 338,133.7 C339.9,127.4 340.7,124.4 338.2,123.1 L334.8,121.4 C320.6,113.9 299.2,102.5 283.7,122.9 C278,130.4 274.5,137.9 270.7,145.9 C263.2,161.7 255.4,178.1 230.5,197.2 L230.5,197.2 Z"></path><rect width="93.4" height="9.2" x="403.79" y="160.537" fill="#000" fill-rule="nonzero" transform="rotate(-54.627 450.49 165.137)"></rect><path fill="#FFF" fill-rule="nonzero" d="M323.5,115 L382.8,142.3 L444.2,150.6 C444.2,150.6 451.5,146.1 454.9,144.1 C456.9,142.9 459.1,142.2 461.4,142.1 L456.9,148.1 L469.6,147.9 C469.6,147.9 473.5,148.9 469.7,150.3 C468.9,150.6 467.5,151.1 467.5,151.1 C467.5,151.1 466.3,158.6 460.3,159.3 C455.3,159.9 430.3,161.5 430.3,161.5 C430.3,161.5 390.3,162.2 382.3,161.5 C376.2,161.1 370.2,160.2 364.3,158.8 C359,157.5 320.3,148.8 309.6,147.5 C298.9,146.2 293.6,148.8 293.6,148.8"></path><path fill="#000" fill-rule="nonzero" d="M398.2,162.4 C391.1,162.4 384.8,162.3 382.2,162.1 C376.1,161.7 370.1,160.8 364.1,159.4 C358.5,158 319.9,149.4 309.5,148.1 C299.1,146.8 293.8,149.4 293.8,149.4 C293.6,149.5 293.2,149.4 293.1,149.2 C293,149 293.1,148.6 293.3,148.5 C293.5,148.4 298.9,145.8 309.6,147.1 C320.1,148.4 358.7,157 364.3,158.4 C370.2,159.8 376.2,160.7 382.2,161 C390.1,161.7 429.7,161 430.2,161 C430.4,161 455.2,159.4 460.2,158.8 C465.8,158.1 467,151 467,151 C467,150.8 467.2,150.7 467.3,150.6 C467.3,150.6 468.7,150.2 469.5,149.9 C470.7,149.4 470.8,149.1 470.8,149.1 C470.4,148.8 470,148.5 469.5,148.5 L456.9,148.7 L456.9,148.7 C456.6,148.7 456.4,148.5 456.4,148.2 C456.4,148.1 456.4,148 456.5,147.9 L460.3,142.8 C458.5,143.1 456.7,143.7 455.1,144.6 C451.8,146.6 444.4,151.1 444.4,151.1 C444.3,151.2 444.2,151.2 444.1,151.2 L382.7,142.9 L382.6,142.9 L323.3,115.6 C323,115.5 322.9,115.2 323.1,114.9 C323.2,114.6 323.5,114.5 323.8,114.7 L383.1,142 L444.3,150.3 C445.4,149.7 451.8,145.7 454.8,143.9 C456.8,142.7 459.2,141.9 461.6,141.8 C461.9,141.8 462.1,142 462.1,142.3 C462.1,142.4 462.1,142.5 462,142.6 L458,147.8 L469.7,147.7 L469.8,147.7 C470.3,147.8 471.9,148.3 471.9,149.3 C471.9,150.3 470.8,150.7 469.9,151.1 C469.3,151.3 468.4,151.6 467.9,151.8 C467.6,153.3 465.9,159.5 460.3,160.2 C455.4,160.8 430.5,162.4 430.3,162.4 C430,162.1 412.3,162.4 398.2,162.4 Z"></path><path fill="#FFF" fill-rule="nonzero" d="M457.6,152.6 C459.6,152.4 468.9,151.3 468.9,151.3"></path><path fill="#000" fill-rule="nonzero" d="M457.6,153.1 C457.3,153.1 457.1,152.9 457.1,152.6 C457.1,152.3 457.3,152.1 457.6,152.1 C459.6,151.9 468.9,150.8 468.9,150.8 L469,151.8 C469,151.8 459.7,152.9 457.6,153.1 L457.6,153.1 Z"></path><path fill="#FFF" fill-rule="nonzero" d="M457,156.6 C460,156.4 462.9,155.8 465.8,154.8"></path><path fill="#000" fill-rule="nonzero" d="M457,157.1 C456.7,157.1 456.5,156.9 456.5,156.6 C456.5,156.3 456.7,156.1 457,156.1 C459.9,155.9 462.8,155.3 465.6,154.4 C465.9,154.3 466.1,154.4 466.2,154.7 C466.3,155 466.2,155.2 465.9,155.3 C463,156.3 460.1,156.9 457,157.1 L457,157.1 Z"></path><polygon fill="#000" fill-rule="nonzero" points="0 70.6 141.5 70.6 71.5 182.1"></polygon><path fill="#DAD3ED" fill-rule="nonzero" d="M48.5,146.1 L48.5,112.1 C48.5,97.1 57.5,89.6 67,89.6 L96.5,89.6 C87,89.6 88,112.6 88,112.6 L88,156.6 L71.5,182.1 L48.5,146.1 Z"></path><path fill="#000" fill-rule="nonzero" d="M71.5,183.1 L48,146.3 L48,112.1 C48,105 50,99 53.8,94.9 C57.2,91.2 62,89.1 67,89.1 L98.4,89.1 L98.4,90.1 L96.5,90.1 C95.1,90.1 93.8,90.7 92.9,91.7 C87.9,96.9 88.5,112.4 88.5,112.5 L88.5,156.7 L71.5,183.1 Z M49,146 L71.5,181.2 L87.5,156.5 L87.5,112.6 C87.5,112 86.9,96.5 92.1,91 C92.4,90.6 92.8,90.3 93.2,90.1 L67,90.1 C54.6,90.1 49,101.5 49,112.1 L49,146 Z"></path><path fill="#F9F4EC" fill-rule="nonzero" d="M124.4,312.1 L124.4,146.7 L124.5,146.6 L124.5,112.6 C124.5,97.6 119,90.1 109.5,90.1 L72.7,90.1 C82.2,90.1 81.2,113.1 81.2,113.1 L81.2,147 L81.1,147.1 C81.1,147.1 81.5,296.6 81.5,311.6 C81.5,324.6 86.6,339.6 96.1,339.6 L132.9,339.6 C129,339.6 124.4,324.1 124.4,312.1 Z"></path><path fill="#000" fill-rule="nonzero" d="M132.9,340.1 L96.1,340.1 C86.6,340.1 81,325.6 81,311.6 C81,296.8 80.6,148.6 80.6,147.1 C80.6,147 80.6,146.9 80.7,146.9 L80.7,113.1 C80.7,112.9 81.3,97.4 76.3,92.2 C75.4,91.2 74,90.6 72.7,90.6 C72.4,90.6 72.2,90.4 72.2,90.1 C72.2,89.8 72.4,89.6 72.7,89.6 L109.5,89.6 C119.5,89.6 125,97.8 125,112.6 L125,146.6 C125,146.7 125,146.8 124.9,146.8 L124.9,312.1 C124.9,324.9 129.7,339.1 132.9,339.1 C133.2,339.1 133.4,339.3 133.4,339.6 C133.4,339.9 133.2,340.1 132.9,340.1 Z M81.6,147.3 C81.6,152.9 82,297 82,311.7 C82,328.9 89.2,339.2 96.1,339.2 L130.9,339.2 C127.1,335.5 123.9,322.4 123.9,312.2 L123.9,146.7 C123.9,146.6 123.9,146.5 124,146.5 L124,112.7 C124,98.3 119,90.7 109.5,90.7 L76,90.7 C76.4,91 76.8,91.3 77.1,91.6 C82.4,97.1 81.8,112.5 81.7,113.2 L81.7,147.1 C81.7,147.1 81.7,147.2 81.6,147.3 Z"></path><path fill="#000" fill-rule="nonzero" d="M117 104.1L89 104.1C88.7 104.1 88.5 103.9 88.5 103.6 88.5 103.3 88.7 103.1 89 103.1L117 103.1C117.3 103.1 117.5 103.3 117.5 103.6 117.5 103.9 117.2 104.1 117 104.1zM117 117.6L89 117.6C88.7 117.6 88.5 117.4 88.5 117.1 88.5 116.8 88.7 116.6 89 116.6L117 116.6C117.3 116.6 117.5 116.8 117.5 117.1 117.5 117.4 117.2 117.6 117 117.6zM117 131.1L89 131.1C88.7 131.1 88.5 130.9 88.5 130.6 88.5 130.3 88.7 130.1 89 130.1L117 130.1C117.3 130.1 117.5 130.3 117.5 130.6 117.5 130.9 117.2 131.1 117 131.1zM117 144.5L89 144.5C88.7 144.5 88.5 144.3 88.5 144 88.5 143.7 88.7 143.5 89 143.5L117 143.5C117.3 143.5 117.5 143.7 117.5 144 117.5 144.3 117.2 144.5 117 144.5zM117 158L89 158C88.7 158 88.5 157.8 88.5 157.5 88.5 157.2 88.7 157 89 157L117 157C117.3 157 117.5 157.2 117.5 157.5 117.5 157.8 117.2 158 117 158zM117 171.5L89 171.5C88.7 171.5 88.5 171.3 88.5 171 88.5 170.7 88.7 170.5 89 170.5L117 170.5C117.3 170.5 117.5 170.7 117.5 171 117.5 171.3 117.2 171.5 117 171.5zM117 184.9L89 184.9C88.7 184.9 88.5 184.7 88.5 184.4 88.5 184.1 88.7 183.9 89 183.9L117 183.9C117.3 183.9 117.5 184.1 117.5 184.4 117.5 184.7 117.2 184.9 117 184.9zM117 198.4L89 198.4C88.7 198.4 88.5 198.2 88.5 197.9 88.5 197.6 88.7 197.4 89 197.4L117 197.4C117.3 197.4 117.5 197.6 117.5 197.9 117.5 198.2 117.2 198.4 117 198.4zM117 211.9L89 211.9C88.7 211.9 88.5 211.7 88.5 211.4 88.5 211.1 88.7 210.9 89 210.9L117 210.9C117.3 210.9 117.5 211.1 117.5 211.4 117.5 211.7 117.2 211.9 117 211.9zM117 225.3L89 225.3C88.7 225.3 88.5 225.1 88.5 224.8 88.5 224.5 88.7 224.3 89 224.3L117 224.3C117.3 224.3 117.5 224.5 117.5 224.8 117.5 225.1 117.2 225.3 117 225.3zM117 238.8L89 238.8C88.7 238.8 88.5 238.6 88.5 238.3 88.5 238 88.7 237.8 89 237.8L117 237.8C117.3 237.8 117.5 238 117.5 238.3 117.5 238.6 117.2 238.8 117 238.8zM117 252.3L89 252.3C88.7 252.3 88.5 252.1 88.5 251.8 88.5 251.5 88.7 251.3 89 251.3L117 251.3C117.3 251.3 117.5 251.5 117.5 251.8 117.5 252.1 117.2 252.3 117 252.3zM117 265.8L89 265.8C88.7 265.8 88.5 265.6 88.5 265.3 88.5 265 88.7 264.8 89 264.8L117 264.8C117.3 264.8 117.5 265 117.5 265.3 117.5 265.6 117.2 265.8 117 265.8zM117 279.2L89 279.2C88.7 279.2 88.5 279 88.5 278.7 88.5 278.4 88.7 278.2 89 278.2L117 278.2C117.3 278.2 117.5 278.4 117.5 278.7 117.5 279 117.2 279.2 117 279.2zM117 292.7L89 292.7C88.7 292.7 88.5 292.5 88.5 292.2 88.5 291.9 88.7 291.7 89 291.7L117 291.7C117.3 291.7 117.5 291.9 117.5 292.2 117.5 292.5 117.2 292.7 117 292.7zM117 306.1L89 306.1C88.7 306.1 88.5 305.9 88.5 305.6 88.5 305.3 88.7 305.1 89 305.1L117 305.1C117.3 305.1 117.5 305.3 117.5 305.6 117.5 305.9 117.2 306.1 117 306.1zM117 319.6L89 319.6C88.7 319.6 88.5 319.4 88.5 319.1 88.5 318.8 88.7 318.6 89 318.6L117 318.6C117.3 318.6 117.5 318.8 117.5 319.1 117.5 319.4 117.2 319.6 117 319.6z"></path><circle cx="739" cy="179.1" r="28.5" fill="#F9F4EC" fill-rule="nonzero"></circle><path fill="#000" fill-rule="nonzero" d="M739,208.1 C723,208.1 710,195.1 710,179.1 C710,163.1 723,150.1 739,150.1 C755,150.1 768,163.1 768,179.1 L768,179.1 C768,195.1 755,208.1 739,208.1 Z M739,151.1 C723.5,151.1 711,163.6 711,179.1 C711,194.6 723.5,207.1 739,207.1 C754.5,207.1 767,194.6 767,179.1 L767,179.1 C767,163.7 754.4,151.1 739,151.1 L739,151.1 Z"></path><path fill="#000" fill-rule="nonzero" d="M739,195.1 C738.7,195.1 738.5,194.9 738.5,194.6 L738.5,163.6 C738.5,163.3 738.7,163.1 739,163.1 C739.3,163.1 739.5,163.3 739.5,163.6 L739.5,194.6 C739.5,194.9 739.2,195.1 739,195.1 Z"></path><path d="M723.5,179.1 L754.5,179.1"></path><path fill="#000" fill-rule="nonzero" d="M754.5,179.6 L723.5,179.6 C723.2,179.6 723,179.4 723,179.1 C723,178.8 723.2,178.6 723.5,178.6 L754.5,178.6 C754.8,178.6 755,178.8 755,179.1 C755,179.4 754.7,179.6 754.5,179.6 Z"></path><path fill="#F9F4EC" fill-rule="nonzero" d="M208,389.1 C238.5,361.1 284,359.6 284,359.6 L302,403.1 C264,404.6 216,437.1 216,437.1 L208,389.1 Z"></path><path fill="#000" fill-rule="nonzero" d="M216,437.6 C215.8,437.6 215.5,437.4 215.5,437.2 L207.5,389.2 C207.5,389 207.5,388.9 207.7,388.7 C238,360.9 283.6,359.1 284,359.1 C284.2,359.1 284.4,359.2 284.5,359.4 L302.5,402.9 C302.6,403.2 302.5,403.4 302.2,403.6 C302.1,403.6 302.1,403.6 302,403.6 C264.6,405.1 216.7,437.2 216.3,437.5 C216.2,437.6 216.1,437.6 216,437.6 Z M208.5,389.3 L216.3,436.3 C222.1,432.5 266,404.4 301.2,402.7 L283.6,360.2 C279.4,360.4 237.1,363.2 208.5,389.3 Z"></path><path fill="#F9F4EC" fill-rule="nonzero" d="M158.5,428.6 L186.5,395.1 C171.5,391.1 142.5,352.6 142.5,352.6 L107,377.1 C120.5,406.6 158.5,428.6 158.5,428.6 Z"></path><path fill="#000" fill-rule="nonzero" d="M158.5,429.1 C158.4,429.1 158.3,429.1 158.3,429 C151,424.6 144.1,419.7 137.5,414.2 C127.3,405.8 113.6,392.5 106.5,377.2 C106.4,377 106.5,376.7 106.7,376.6 L142.2,352.1 C142.4,351.9 142.7,352 142.9,352.2 C143.2,352.6 172,390.6 186.6,394.5 C186.9,394.6 187,394.9 186.9,395.1 C186.9,395.2 186.8,395.2 186.8,395.3 L158.8,428.8 C158.7,429 158.6,429.1 158.5,429.1 Z M107.6,377.3 C114.6,392.3 128,405.3 138.1,413.5 C144.5,418.8 151.3,423.6 158.4,427.9 L185.6,395.3 C171.1,390.5 145.5,357.4 142.4,353.2 L107.6,377.3 Z"></path><circle cx="184" cy="182.1" r="28" fill="#FFF" fill-rule="nonzero"></circle><path fill="#000" fill-rule="nonzero" d="M184,210.6 C168.3,210.6 155.5,197.8 155.5,182.1 C155.5,166.4 168.3,153.6 184,153.6 C199.7,153.6 212.5,166.4 212.5,182.1 C212.5,197.9 199.7,210.6 184,210.6 Z M184,154.6 C168.8,154.6 156.5,166.9 156.5,182.1 C156.5,197.3 168.8,209.6 184,209.6 C199.2,209.6 211.5,197.3 211.5,182.1 C211.5,166.9 199.1,154.6 184,154.6 L184,154.6 Z"></path><path fill="#FFF" fill-rule="nonzero" d="M163.5,178.6 C163.5,178.6 175.5,129.6 177,124.6 C178.5,119.6 182,109.1 190,106.1 C198,103.1 227.4,98.5 234.5,97.1 C244.5,95.1 253,105.4 240,110.6 C253.5,107.1 258,119.1 248,124.1 C257,121.6 258.5,134.1 250,136.6 L240,140.6 C248,138.1 253.8,146.2 246,150.6 C238,155.1 224,161.6 224,161.6 C224,161.6 213,183.1 203,193.6"></path><path fill="#000" fill-rule="nonzero" d="M203,194.1 C202.7,194.1 202.5,193.9 202.5,193.6 C202.5,193.5 202.5,193.4 202.6,193.3 C212.4,183 223.4,161.6 223.5,161.4 C223.5,161.3 223.6,161.2 223.7,161.2 C223.8,161.1 237.8,154.7 245.7,150.2 C248.6,148.6 249.8,146.2 248.8,144 C247.8,141.8 244.4,139.8 240.1,141.1 C239.8,141.2 239.6,141 239.5,140.7 C239.4,140.5 239.6,140.2 239.8,140.1 L249.8,136.1 C253.5,135.2 255.8,131.5 254.9,127.8 C254.9,127.8 254.9,127.7 254.9,127.7 C254.3,125.4 252.1,123.4 248.1,124.5 C247.8,124.6 247.6,124.4 247.5,124.2 C247.4,124 247.5,123.7 247.8,123.6 C252.5,121.2 253.6,117.5 252.6,114.8 C251.4,111.6 247.1,109.2 240.1,111 C239.8,111.1 239.6,110.9 239.5,110.7 C239.4,110.4 239.6,110.2 239.8,110.1 C244.6,108.2 246.8,105.5 245.9,102.5 C244.9,99.3 240.1,96.4 234.6,97.5 C232.8,97.9 229.6,98.4 225.6,99.1 C213.8,101.1 196.1,104.2 190.2,106.5 C182,109.6 178.6,120.9 177.5,124.7 C176,129.6 164.1,178.2 164,178.7 C163.9,179 163.7,179.1 163.4,179.1 C163.1,179 163,178.8 163,178.5 C163.1,178 175,129.4 176.5,124.5 C177.7,120.6 181.2,108.9 189.8,105.7 C195.8,103.4 213.6,100.3 225.4,98.3 C229.4,97.6 232.6,97.1 234.4,96.7 C240.5,95.5 245.8,98.6 246.9,102.3 C247.7,105 246.3,107.6 243.2,109.6 C248.8,109.1 252.3,111.6 253.5,114.6 C254.5,117.2 253.8,120.7 250.3,123.3 C252.9,123.2 255.2,125 255.8,127.5 C256.9,131.7 254.4,136 250.2,137.1 C250.2,137.1 250.1,137.1 250.1,137.1 L243.7,139.7 C246.3,139.8 248.6,141.3 249.8,143.6 C250.7,145.7 250.3,148.8 246.3,151.1 C238.8,155.3 226,161.3 224.4,162 C223.4,164 212.9,184 203.4,194 C203.3,194.1 203.1,194.1 203,194.1 Z"></path><path d="M205.5,118.6 L240.5,110.6"></path><path fill="#000" fill-rule="nonzero" d="M205.5,119.1 C205.2,119.1 205,118.9 204.9,118.7 C204.8,118.5 205.1,118.2 205.3,118.1 L240.3,110.1 C240.6,110 240.8,110.2 240.9,110.5 C241,110.8 240.8,111 240.5,111.1 L205.5,119.1 L205.5,119.1 Z"></path><path d="M216,133.1 L248,124.1"></path><path fill="#000" fill-rule="nonzero" d="M216,133.6 C215.7,133.6 215.5,133.4 215.4,133.2 C215.3,133 215.6,132.7 215.8,132.6 L247.8,123.6 C248.1,123.5 248.4,123.7 248.4,124 C248.5,124.3 248.3,124.6 248,124.6 L216,133.6 L216,133.6 Z"></path><path d="M221,147.1 L241,140.1"></path><path fill="#000" fill-rule="nonzero" d="M221,147.6 C220.7,147.6 220.5,147.5 220.4,147.2 C220.4,146.9 220.5,146.7 220.8,146.6 L240.8,139.6 C241.1,139.5 241.3,139.7 241.4,140 C241.5,140.2 241.3,140.5 241.1,140.6 L221.1,147.6 L221,147.6 Z"></path><rect width="55" height="55" x="389.5" y="20.1" fill="#DAD3ED" fill-rule="nonzero"></rect><path fill="#000" fill-rule="nonzero" d="M444.5,75.6 L389.5,75.6 C389.2,75.6 389,75.4 389,75.1 L389,20.1 C389,19.8 389.2,19.6 389.5,19.6 L444.5,19.6 C444.8,19.6 445,19.8 445,20.1 L445,75.1 C445,75.4 444.7,75.6 444.5,75.6 Z M390,74.6 L444,74.6 L444,20.6 L390,20.6 L390,74.6 Z"></path><rect width="55" height="55" x="455.5" y="20.1" fill="#DAD3ED" fill-rule="nonzero"></rect><path fill="#000" fill-rule="nonzero" d="M510.5,75.6 L455.5,75.6 C455.2,75.6 455,75.4 455,75.1 L455,20.1 C455,19.8 455.2,19.6 455.5,19.6 L510.5,19.6 C510.8,19.6 511,19.8 511,20.1 L511,75.1 C511,75.4 510.7,75.6 510.5,75.6 Z M456,74.6 L510,74.6 L510,20.6 L456,20.6 L456,74.6 Z"></path><rect width="55" height="55" x="567.5" y="20.1" fill="#DAD3ED" fill-rule="nonzero"></rect><path fill="#000" fill-rule="nonzero" d="M622.5,75.6 L567.5,75.6 C567.2,75.6 567,75.4 567,75.1 L567,20.1 C567,19.8 567.2,19.6 567.5,19.6 L622.5,19.6 C622.8,19.6 623,19.8 623,20.1 L623,75.1 C623,75.4 622.7,75.6 622.5,75.6 Z M568,74.6 L622,74.6 L622,20.6 L568,20.6 L568,74.6 Z"></path><polygon fill="#000" fill-rule="nonzero" points="575.5 32.1 614.8 32.1 595.3 63.1"></polygon><rect width="55" height="55" x="633.5" y="20.1" fill="#DAD3ED" fill-rule="nonzero"></rect><path fill="#000" fill-rule="nonzero" d="M688.5,75.6 L633.5,75.6 C633.2,75.6 633,75.4 633,75.1 L633,20.1 C633,19.8 633.2,19.6 633.5,19.6 L688.5,19.6 C688.8,19.6 689,19.8 689,20.1 L689,75.1 C689,75.4 688.7,75.6 688.5,75.6 Z M634,74.6 L688,74.6 L688,20.6 L634,20.6 L634,74.6 Z"></path><circle cx="515.6" cy="64.3" r="62" fill="#F9F4EC" fill-rule="nonzero"></circle><path fill="#000" fill-rule="nonzero" d="M515.6,127.8 C480.5,127.8 452.1,99.4 452.1,64.3 C452.1,29.2 480.5,0.8 515.6,0.8 C550.7,0.8 579.1,29.2 579.1,64.3 C579.1,99.3 550.7,127.8 515.6,127.8 Z M515.6,3.8 C482.2,3.8 455.1,30.9 455.1,64.3 C455.1,97.7 482.2,124.8 515.6,124.8 C549,124.8 576.1,97.7 576.1,64.3 C576.1,30.9 549,3.8 515.6,3.8 Z"></path><path fill="#000" fill-rule="nonzero" d="M515.6 118.1C509.9 118.1 504.2 117.2 498.8 115.4 498.5 115.3 498.4 115 498.5 114.7 498.6 114.4 498.9 114.3 499.2 114.4L499.2 114.4C526.9 123.4 556.8 108.3 565.8 80.5 570.1 67.4 569.1 53.1 563 40.8 562.9 40.6 563 40.3 563.2 40.1 563.4 40 563.7 40.1 563.9 40.3 567.6 47.7 569.5 55.9 569.5 64.2 569.4 94 545.3 118.1 515.6 118.1zM467.7 88.2C467.5 88.2 467.3 88.1 467.2 87.9 463.6 80.5 461.7 72.4 461.7 64.2 461.7 34.5 485.8 10.4 515.5 10.4 515.8 10.4 516 10.6 516 10.9 516 11.2 515.8 11.4 515.5 11.4 486.3 11.4 462.7 35.1 462.7 64.2 462.7 72.3 464.5 80.2 468.1 87.4 468.2 87.6 468.1 87.9 467.9 88.1 467.9 88.1 467.9 88.1 467.9 88.1 467.9 88.2 467.8 88.2 467.7 88.2z"></path><circle cx="685.5" cy="261.1" r="29.5" fill="#FFF" fill-rule="nonzero"></circle><path fill="#000" fill-rule="nonzero" d="M685.5,291.1 C668.9,291.1 655.5,277.7 655.5,261.1 C655.5,244.5 668.9,231.1 685.5,231.1 C702.1,231.1 715.5,244.5 715.5,261.1 C715.5,277.7 702,291.1 685.5,291.1 L685.5,291.1 Z M685.5,232.1 C669.5,232.1 656.5,245.1 656.5,261.1 C656.5,277.1 669.5,290.1 685.5,290.1 C701.5,290.1 714.5,277.1 714.5,261.1 C714.5,245.1 701.5,232.1 685.5,232.1 L685.5,232.1 Z"></path><path fill="#FFF" fill-rule="nonzero" d="M695.5,277.6 C695.5,277.6 687,294.6 667.5,299.6 C648,304.6 639.5,294.6 639.5,294.6 C639.5,294.6 623.5,294.3 617.5,293.6 C613,293.1 605.5,283.6 621,281.1 L612.5,281.1 C605,281.1 601.5,269.1 610.5,266.6 C601.5,266.1 600.5,254.6 609.5,252.1 C600.5,252.1 599,241.1 610.5,238.6 C610.5,238.6 639.5,235.6 652,234.6 C664.5,233.6 673,241.6 677,252.1"></path><path fill="#000" fill-rule="nonzero" d="M657.1,301.5 C653.3,301.6 649.5,300.9 646,299.5 C643.5,298.5 641.2,297.1 639.3,295.2 C637.4,295.2 623,294.8 617.5,294.2 C614.7,293.9 611.3,290.8 611.2,287.5 C611.2,285.9 611.9,283.3 616.8,281.7 L612.5,281.7 C608.1,281.7 605.2,277.9 604.7,274.4 C604.2,271.3 605.7,268.3 608.5,266.9 C605.4,266.2 603.1,263.6 602.7,260.5 C602.4,257.1 604.2,253.9 607.3,252.5 C604.4,252.1 602.2,249.8 601.8,246.9 C601.4,243.6 604,239.6 610.3,238.2 C610.6,238.2 639.5,235.2 651.9,234.2 C663.3,233.3 672.8,240 677.4,252 C677.5,252.2 677.4,252.5 677.2,252.7 C677,252.9 676.7,252.7 676.5,252.5 C676.5,252.5 676.5,252.5 676.5,252.4 C672,240.6 663.1,234.3 652,235.2 C639.7,236.2 610.8,239.2 610.5,239.2 C604.8,240.4 602.5,243.9 602.8,246.8 C603.1,249.2 605.2,251.7 609.5,251.7 C609.8,251.7 610,251.9 610.1,252.1 C610.2,252.3 609.9,252.6 609.7,252.7 C605.2,253.9 603.5,257.5 603.8,260.4 C604.1,262.9 606,266 610.6,266.2 C610.9,266.2 611.1,266.4 611.2,266.6 C611.3,266.8 611,267.1 610.8,267.2 C606.6,268.4 605.5,271.6 605.9,274.3 C606.3,277.4 608.9,280.7 612.7,280.7 L621.2,280.7 C621.5,280.7 621.7,280.9 621.7,281.2 C621.7,281.5 621.5,281.7 621.2,281.7 L621.2,281.7 C615.4,282.6 612.2,284.7 612.3,287.5 C612.4,290.1 615.4,292.9 617.7,293.2 C623.6,293.8 639.5,294.2 639.7,294.2 C639.8,294.2 640,294.3 640.1,294.4 C640.2,294.5 648.7,304.1 667.6,299.2 C686.5,294.3 695.2,277.6 695.3,277.5 C695.4,277.2 695.7,277.1 696,277.2 C696.3,277.3 696.4,277.6 696.3,277.9 C696.3,277.9 696.3,277.9 696.3,278 C696.2,278.2 687.5,295.3 668,300.3 C664.2,301.1 660.7,301.5 657.1,301.5 Z"></path><path d="M609.5,252.1 L644,249.6"></path><path fill="#000" fill-rule="nonzero" d="M609.5,252.6 C609.2,252.6 609,252.4 609,252.1 C609,251.8 609.2,251.6 609.5,251.6 L644,249.1 C644.3,249.1 644.5,249.3 644.5,249.6 C644.5,249.9 644.3,250.1 644,250.1 L609.5,252.6 L609.5,252.6 Z"></path><path d="M610.5,266.6 L645,264.6"></path><path fill="#000" fill-rule="nonzero" d="M610.5,267.1 C610.2,267.1 610,266.9 610,266.6 C610,266.3 610.2,266.1 610.5,266.1 L645,264.1 C645.3,264.1 645.5,264.3 645.5,264.6 C645.5,264.6 645.5,264.6 645.5,264.6 C645.5,264.9 645.3,265.1 645,265.1 C645,265.1 645,265.1 645,265.1 L610.5,267.1 L610.5,267.1 Z"></path><path d="M619,281.6 L648,280.1"></path><path fill="#000" fill-rule="nonzero" d="M619,282.1 C618.7,282.1 618.5,281.9 618.5,281.6 C618.5,281.3 618.7,281.1 619,281.1 L648,279.6 C648.3,279.6 648.5,279.8 648.5,280 C648.5,280 648.5,280 648.5,280 C648.5,280.3 648.3,280.5 648,280.5 C648,280.5 648,280.5 648,280.5 L619,282.1 L619,282.1 Z"></path><path fill="#FFF" fill-rule="nonzero" d="M423,225.1 C424.6,224.1 426.4,223.4 428.3,223.3 C430.8,223.3 437.5,224.6 447,234.6 C447,234.6 490,241.6 501,242.1 C512,242.6 587,232.6 587,232.6 L589,270.1 C589,270.1 586.5,266.6 575.5,266.6 C564.5,266.6 514.5,265.6 506,264.1 C497.5,262.6 436.5,245.1 436.5,245.1 L426,245.1 C420.9,245.3 416,243.7 412,240.6 C408,237.6 408.5,235.6 408.5,235.6 C412.2,236.1 416,235.8 419.5,234.6 C425.5,232.6 431.5,230.1 431.5,230.1 L423,225.1 Z"></path><path fill="#000" fill-rule="nonzero" d="M589,270.6 C588.8,270.6 588.7,270.5 588.6,270.4 C588.6,270.4 586,267.1 575.5,267.1 C564.8,267.1 514.5,266.1 505.9,264.6 C497.6,263.1 438.8,246.3 436.4,245.6 L426,245.6 C420.8,245.8 415.8,244.2 411.7,241 C407.6,237.9 407.9,235.7 408,235.5 C408.1,235.2 408.3,235.1 408.6,235.1 C412.2,235.6 415.9,235.3 419.3,234.1 C423.8,232.6 428.4,230.8 430.3,230 L422.7,225.5 C422.5,225.4 422.4,225 422.5,224.8 C422.5,224.7 422.6,224.7 422.7,224.6 C424.4,223.5 426.3,222.9 428.3,222.7 C430.7,222.7 437.4,223.8 447.2,234.1 C450.1,234.6 490.5,241.1 501,241.6 C511.8,242.1 586.2,232.2 586.9,232.1 C587.2,232.1 587.4,232.3 587.5,232.5 C587.5,232.5 587.5,232.5 587.5,232.5 L589.5,270 C589.5,270.2 589.4,270.4 589.2,270.5 L589,270.6 Z M409,236.2 C409.1,236.9 409.8,238.3 412.3,240.2 C416.2,243.2 421.1,244.8 426,244.6 L436.5,244.6 L436.6,244.6 C437.2,244.8 497.7,262.1 506.1,263.6 C514.5,265.1 564.8,266.1 575.5,266.1 C583.3,266.1 586.9,267.8 588.4,268.9 L586.5,233.1 C579.2,234.1 511.5,243 501,242.5 C490.1,242 447.4,235.1 446.9,235 C446.8,235 446.7,234.9 446.6,234.9 C436.8,224.5 430.1,223.7 428.3,223.7 C426.8,223.8 425.3,224.3 424,225 L431.8,229.6 C432,229.7 432.1,230 432,230.3 C431.9,230.4 431.9,230.5 431.8,230.5 C431.7,230.5 425.7,233 419.8,235 C416.2,236.2 412.6,236.6 409,236.2 Z"></path><path fill="#FFF" fill-rule="nonzero" d="M423,225.1 C425.8,224.9 428.5,225.4 431,226.6 C435,228.6 440.5,235.6 440.5,235.6 C440.5,235.6 439.5,237.1 435,235.6 C431.8,234.4 428.8,232.9 426,231.1"></path><path fill="#000" fill-rule="nonzero" d="M438.4,236.8 C437.2,236.8 436,236.5 434.8,236.1 C431.6,234.9 428.5,233.4 425.7,231.5 C425.5,231.3 425.5,231 425.6,230.8 C425.8,230.6 426,230.6 426.2,230.7 C429,232.5 432,234 435.1,235.1 C437.9,236 439.2,235.7 439.7,235.5 C438.5,234 434,228.7 430.7,227 C428.3,225.8 425.6,225.3 423,225.5 C422.7,225.5 422.5,225.3 422.4,225.1 C422.3,224.9 422.6,224.6 422.8,224.5 C425.7,224.3 428.5,224.8 431.1,226 C435.1,228 440.5,234.9 440.8,235.1 C440.9,235.3 440.9,235.5 440.8,235.7 C440.8,236 440.2,236.8 438.4,236.8 Z"></path><path d="M423.6,148.6 L420.5,161.6"></path><path fill="#000" fill-rule="nonzero" d="M420.5 162.1L420.4 162.1C420.1 162 420 161.8 420 161.5L423.2 148.5C423.3 148.2 423.5 148.1 423.8 148.1 424.1 148.2 424.2 148.4 424.2 148.7L421 161.7C420.9 162 420.7 162.1 420.5 162.1zM503.2 242.1L501 263C503.2 263.6 504.9 264 505.9 264.1 514.4 265.6 564.4 266.6 575.4 266.6 586.4 266.6 588.9 270.1 588.9 270.1L586.9 232.6C587 232.6 519.5 241.6 503.2 242.1zM381.5 337.1C381.3 337.1 381.1 337 381 336.8L369.7 306.2C369.6 305.9 369.7 305.7 370 305.6 370.3 305.5 370.5 305.6 370.6 305.9L381.9 336.5C382 336.8 381.9 337 381.6 337.1 381.6 337.1 381.6 337.1 381.5 337.1L381.5 337.1z"></path><path fill="#FFF" fill-rule="nonzero" d="M389.8,290 C387.5,295.7 371,308.5 370.4,307.7 C370.1,307.2 366.7,287.2 369.1,281.5 C371.4,275.8 378,273 383.7,275.4 C389.4,277.7 392.1,284.3 389.8,290 L389.8,290 Z"></path><path fill="#000" fill-rule="nonzero" d="M370.5,308.3 C370.3,308.3 370.1,308.2 370,308 C369.5,307.3 366.2,287.1 368.6,281.3 C371,275.3 377.9,272.5 383.9,274.9 C389.9,277.3 392.7,284.2 390.3,290.2 L390.3,290.2 C388,295.7 372.7,308.1 370.5,308.3 L370.5,308.3 Z M379.4,275.1 C375.1,275.1 371.1,277.7 369.5,281.7 C367.4,286.7 370.1,304.3 370.7,307.2 C373.1,306 387.1,295.1 389.2,289.8 C391.4,284.3 388.8,278.1 383.4,275.9 C382.2,275.4 380.8,275.1 379.4,275.1 L379.4,275.1 Z"></path><path fill="#FFF" fill-rule="nonzero" d="M354.6,287.6 C360.1,290.4 370.6,308.6 370.4,307.6 C370.2,306.8 349.8,310.3 344.3,307.5 C338.8,304.7 336.6,297.9 339.5,292.4 C342.4,286.9 349.2,284.7 354.6,287.6 L354.6,287.6 L354.6,287.6 Z"></path><path fill="#000" fill-rule="nonzero" d="M352.4,309.1 C348.9,309.1 345.9,308.8 344.2,307.9 C338.5,304.9 336.2,297.9 339.2,292.1 C342.2,286.4 349.2,284.1 355,287.1 L355,287.1 L355,287.1 C359.2,289.3 366,299.8 369.3,304.9 C369.9,305.8 370.5,306.7 370.8,307.1 C371,307.2 371.1,307.3 371.1,307.5 C371.1,307.7 371,308 370.8,308.1 C370.6,308.2 370.5,308.2 370.3,308 C369.7,307.9 367.4,308.1 365.2,308.3 C361.3,308.7 356.5,309.1 352.4,309.1 Z M349.5,286.9 C343.6,286.9 338.8,291.6 338.8,297.6 C338.8,301.6 341,305.3 344.6,307.1 C348.1,308.9 358.6,308 364.9,307.4 C367.1,307.2 368.5,307.1 369.4,307 L368.4,305.5 C365.4,300.9 358.4,290.1 354.5,288.1 C352.9,287.3 351.2,286.8 349.5,286.9 L349.5,286.9 Z"></path><path d="M384.3,275.8 L370.5,308.8"></path><path fill="#000" fill-rule="nonzero" d="M370.5,309.2 L370.4,309.2 C370.2,309.1 370.1,308.9 370.2,308.7 L384.1,275.7 C384.2,275.5 384.3,275.4 384.5,275.5 C384.7,275.6 384.8,275.7 384.7,275.9 C384.7,275.9 384.7,276 384.7,276 L370.8,309 C370.7,309.1 370.6,309.2 370.5,309.2 Z"></path><path d="M339.4,294.3 L370.5,307.6"></path><path fill="#000" fill-rule="nonzero" d="M370.5,308 L370.4,308 L339.3,294.7 C339.1,294.6 339.1,294.4 339.2,294.2 C339.3,294.1 339.4,294 339.6,294 L370.7,307.3 C370.9,307.4 371,307.6 370.9,307.8 C370.7,307.9 370.6,308 370.5,308 L370.5,308 Z"></path><path d="M121,383.1 L142.5,366.1"></path><path fill="#000" fill-rule="nonzero" d="M121,383.6 C120.7,383.6 120.5,383.4 120.5,383.1 C120.5,382.9 120.6,382.8 120.7,382.7 L142.2,365.7 C142.4,365.5 142.7,365.5 142.9,365.7 C143.1,365.9 143.1,366.2 142.9,366.4 C142.9,366.4 142.9,366.4 142.8,366.5 L121.3,383.5 C121.2,383.6 121.1,383.6 121,383.6 Z"></path><path d="M129.5,394.1 L149.5,375.6"></path><path fill="#000" fill-rule="nonzero" d="M129.5,394.6 C129.2,394.6 129,394.4 129,394.1 C129,394 129.1,393.8 129.2,393.7 L149.2,375.2 C149.4,375 149.7,375.1 149.9,375.3 C150.1,375.5 150,375.8 149.9,376 L129.9,394.5 C129.7,394.6 129.6,394.6 129.5,394.6 Z"></path><path d="M140.5,404.6 L159.5,385.6"></path><path fill="#000" fill-rule="nonzero" d="M140.5,405.1 C140.2,405.1 140,404.9 140,404.6 C140,404.5 140.1,404.3 140.1,404.3 L159.1,385.3 C159.3,385.1 159.6,385.1 159.8,385.3 C160,385.5 160,385.8 159.8,386 L140.8,405 C140.7,405.1 140.6,405.1 140.5,405.1 Z"></path><path d="M153,414.1 L170,394.6"></path><path fill="#000" fill-rule="nonzero" d="M153,414.6 C152.7,414.6 152.5,414.4 152.5,414.1 C152.5,414 152.5,413.9 152.6,413.8 L169.6,394.3 C169.8,394.1 170.1,394.1 170.3,394.3 C170.5,394.5 170.5,394.8 170.3,395 L153.3,414.5 C153.2,414.6 153.1,414.6 153,414.6 Z"></path><path d="M221.5,388.6 L228,417.1"></path><path fill="#000" fill-rule="nonzero" d="M228,417.6 C227.8,417.6 227.6,417.4 227.5,417.2 L221,388.7 C220.9,388.4 221.1,388.2 221.4,388.1 C221.7,388 221.9,388.2 222,388.5 L228.5,417 C228.6,417.3 228.4,417.5 228.1,417.6 C228.1,417.6 228.1,417.6 228.1,417.6 L228,417.6 Z"></path><path d="M235,381.6 L243.5,409.1"></path><path fill="#000" fill-rule="nonzero" d="M243.5,409.6 C243.3,409.6 243.1,409.5 243,409.3 L234.5,381.8 C234.4,381.5 234.6,381.2 234.9,381.2 C235.2,381.1 235.5,381.3 235.5,381.6 L244,409 C244.1,409.3 243.9,409.5 243.7,409.6 C243.7,409.6 243.7,409.6 243.7,409.6 L243.5,409.6 Z"></path><path d="M250.5,374.1 L260,401.6"></path><path fill="#000" fill-rule="nonzero" d="M260,402.1 C259.8,402.1 259.6,402 259.5,401.8 L250,374.3 C249.9,374 250,373.8 250.3,373.7 C250.6,373.6 250.8,373.7 250.9,374 L250.9,374 L260.4,401.5 C260.5,401.8 260.4,402 260.1,402.1 C260.1,402.1 260.1,402.1 260.1,402.1 L260,402.1 Z"></path><path d="M268.5,369.6 L278.5,397.6"></path><path fill="#000" fill-rule="nonzero" d="M278.5 398.1C278.3 398.1 278.1 398 278 397.8L268 369.8C267.9 369.5 268 369.3 268.3 369.2 268.6 369.1 268.8 369.2 268.9 369.5 268.9 369.5 268.9 369.5 268.9 369.5L278.9 397.5C279 397.8 278.9 398 278.6 398.1 278.6 398.1 278.5 398.1 278.5 398.1zM403 65.1C402.7 65.1 402.5 64.9 402.5 64.6L402.5 55.1C402.5 54.8 402.7 54.6 403 54.6L412 54.6 412 46.1C412 45.8 412.2 45.6 412.5 45.6L421.5 45.6 421.5 37.1C421.5 36.8 421.7 36.6 422 36.6L430 36.6 430 29.6C430 29.3 430.2 29.1 430.5 29.1 430.8 29.1 431 29.3 431 29.6L431 37.1C431 37.4 430.8 37.6 430.5 37.6L422.5 37.6 422.5 46.1C422.5 46.4 422.3 46.6 422 46.6L413 46.6 413 55.1C413 55.4 412.8 55.6 412.5 55.6L403.5 55.6 403.5 64.6C403.5 64.9 403.2 65.1 403 65.1z"></path><path fill="#F9F4EC" fill-rule="nonzero" d="M660.5,46.1 L660.5,27.1 C650,27.1 641.5,35.6 641.5,46.1 C641.5,56.6 650,65.1 660.5,65.1 C671,65.1 679.5,56.6 679.5,46.1 C679.5,41.1 677.6,36.4 674.1,32.8 L660.5,46.1 Z"></path><path fill="#000" fill-rule="nonzero" d="M660.5,65.6 C649.7,65.6 641,56.9 641,46.1 C641,35.3 649.7,26.6 660.5,26.6 C660.8,26.6 661,26.8 661,27.1 L661,44.9 L673.7,32.5 C673.9,32.3 674.2,32.3 674.4,32.5 C674.4,32.5 674.4,32.5 674.4,32.5 C681.9,40.2 681.8,52.5 674.1,60.1 C670.5,63.6 665.6,65.6 660.5,65.6 L660.5,65.6 Z M660,27.6 C649.8,27.9 641.7,36.4 642,46.6 C642.3,56.8 650.8,64.9 661,64.6 C671.2,64.3 679.3,55.8 679,45.6 C678.9,41.1 677.1,36.8 674.1,33.5 L660.9,46.4 C660.7,46.6 660.4,46.6 660.2,46.4 C660.1,46.3 660.1,46.2 660.1,46 L660,27.6 Z"></path><path fill="#FFF" fill-rule="nonzero" d="M411,239.1 C417,240.1 426,238.1 426,238.1"></path><path fill="#000" fill-rule="nonzero" d="M414.9,239.9 C413.6,239.9 412.2,239.8 410.9,239.6 C410.6,239.6 410.4,239.3 410.5,239 C410.5,238.7 410.8,238.5 411.1,238.6 C416.9,239.6 425.8,237.6 425.9,237.6 C426.2,237.5 426.4,237.7 426.5,238 C426.6,238.3 426.4,238.5 426.1,238.6 C422.4,239.4 418.6,239.8 414.9,239.9 Z"></path><path fill="#FFF" fill-rule="nonzero" d="M416.5,242.6 C420.5,242.8 424.6,242.5 428.5,241.6"></path><path fill="#000" fill-rule="nonzero" d="M419,243.2 C418.1,243.2 417.3,243.2 416.4,243.1 C416.1,243.1 415.9,242.8 415.9,242.6 C415.9,242.6 415.9,242.6 415.9,242.6 C415.9,242.3 416.2,242.1 416.4,242.1 C420.4,242.3 424.4,242 428.2,241.1 C428.5,241 428.8,241.2 428.8,241.5 C428.8,241.8 428.7,242.1 428.4,242.1 C425.5,242.8 422.3,243.2 419,243.2 Z"></path><path fill="#FFF" fill-rule="nonzero" d="M424,294.6 C426.5,299.6 433.5,298.1 433.5,298.1"></path><path fill="#000" fill-rule="nonzero" d="M431.2,298.8 C428.8,298.8 425.2,298.2 423.5,294.8 C423.4,294.5 423.5,294.3 423.8,294.1 C424,294 424.3,294.1 424.4,294.3 C426.7,298.9 433.3,297.5 433.4,297.5 C433.7,297.4 433.9,297.6 434,297.9 C434.1,298.2 433.9,298.4 433.6,298.5 C432.8,298.7 432,298.8 431.2,298.8 Z"></path><path fill="#FFF" fill-rule="nonzero" d="M589.5,268.8 C589.3,268.8 589.2,268.8 589.1,268.7 C585.1,266 580.4,264.6 575.6,264.8 L571.4,265.1 C559.8,265.9 532.6,267.7 520,266.8 C513,266.3 501.1,263.7 501,263.7 C500.6,263.6 500.4,263.2 500.5,262.9 C500.6,262.5 501,262.3 501.3,262.4 C501.4,262.4 513.3,265 520.1,265.5 C532.7,266.4 559.8,264.6 571.3,263.8 L575.5,263.5 C580.6,263.3 585.7,264.7 590,267.6 C590.3,267.8 590.4,268.3 590.1,268.6 C589.9,268.7 589.7,268.8 589.5,268.8 L589.5,268.8 Z"></path><path fill="#FFF" fill-rule="nonzero" d="M511,292.8 C510.8,292.8 510.5,292.7 510.4,292.5 C510.3,292.3 510.3,292.1 510.3,291.9 C510.3,291.2 510,288.1 509.8,284.5 C509.3,278.8 508.7,270.9 508.3,264.3 C508.3,263.9 508.6,263.6 509,263.6 C509,263.6 509,263.6 509,263.6 C509.4,263.6 509.7,263.9 509.8,264.3 C510.2,270.9 510.8,278.8 511.3,284.5 C512,292.7 512,292.7 511.4,292.9 C511.1,292.8 511,292.8 511,292.8 Z"></path><path fill="#000" fill-rule="nonzero" d="M481 128.1C477.7 128.1 475 125.4 475 122.1 475 118.8 477.7 116.1 481 116.1 484.3 116.1 487 118.8 487 122.1 487 125.4 484.3 128.1 481 128.1zM481 118.1C478.8 118.1 477 119.9 477 122.1 477 124.3 478.8 126.1 481 126.1 483.2 126.1 485 124.3 485 122.1 485 119.9 483.2 118.1 481 118.1zM514.8 118.1L514.8 118.1C514.6 118.1 514.3 117.9 514.3 117.7 514.3 117.7 514.3 117.7 514.3 117.7L514.5 50.4C514.5 50.2 514.7 50 515 50L515 50 515 50C515.2 50 515.5 50.2 515.5 50.4L515.5 50.4 515.3 117.7C515.2 117.9 515 118.1 514.8 118.1L514.8 118.1z"></path><path fill="#FFF" fill-rule="nonzero" d="M499.2,83.6 C503.5,87.2 509.2,105.2 509.3,104.3 C509.3,103.6 490.6,102.7 486.4,99.1 C482.1,95.5 481.5,89.2 485.1,84.9 C488.6,80.6 494.9,80.1 499.2,83.6 Z"></path><path fill="#000" fill-rule="nonzero" d="M509.2,104.9 C509.1,104.9 509,104.9 508.9,104.7 C508.3,104.5 506.3,104.3 504.4,104 C498.3,103.2 489.1,102.1 486.1,99.6 C481.6,95.9 481,89.2 484.7,84.7 C488.4,80.2 495.1,79.6 499.6,83.3 L499.6,83.3 C502.9,86 506.9,96.6 508.8,101.7 C509.1,102.6 509.5,103.5 509.6,103.9 C509.8,104 509.8,104.2 509.8,104.4 C509.8,104.6 509.6,104.9 509.4,104.9 L509.2,104.9 Z M492.8,81.8 C487.5,81.8 483.2,86.1 483.2,91.3 C483.2,94.2 484.5,96.9 486.7,98.8 C489.5,101.1 498.9,102.3 504.5,103 C506.4,103.2 507.6,103.4 508.4,103.5 C508.2,103.1 508.1,102.6 507.8,102 C506.1,97.4 502,86.6 498.9,84 L498.9,84 C497.2,82.6 495,81.8 492.8,81.8 L492.8,81.8 Z"></path><path fill="#FFF" fill-rule="nonzero" d="M544.3,97.2 C540.2,101 521.8,105 521.7,104.1 C521.6,103.6 526.6,86 530.7,82.2 C534.8,78.4 541.2,78.8 545,82.9 C548.8,87 548.4,93.5 544.3,97.2 L544.3,97.2 Z"></path><path fill="#000" fill-rule="nonzero" d="M522.2,104.8 C522,104.8 521.8,104.8 521.6,104.7 C521.4,104.6 521.2,104.5 521.2,104.2 C521.1,103.5 526.2,85.7 530.4,81.9 C534.7,78 541.4,78.3 545.4,82.6 C549.3,86.9 549,93.6 544.7,97.6 L544.7,97.6 C541,100.9 525.7,104.8 522.2,104.8 Z M522.2,103.8 L522.2,103.8 C525,103.8 540.3,100.2 543.9,96.9 L543.9,96.9 C547.8,93.3 547.9,87.2 544.3,83.3 C540.8,79.5 534.9,79.3 531,82.7 C527.4,86 522.9,101.1 522.2,103.8 L522.2,103.8 Z"></path><path d="M544.7,84.2 L515.4,109"></path><path fill="#000" fill-rule="nonzero" d="M515.4,109.3 C515.2,109.3 515.1,109.2 515.1,109 C515.1,108.9 515.1,108.8 515.2,108.8 L544.5,84 C544.6,83.9 544.8,83.9 544.9,84 C545,84.1 545,84.3 544.9,84.4 L544.9,84.4 L515.6,109.2 C515.6,109.2 515.5,109.3 515.4,109.3 Z"></path><path fill="#FFF" fill-rule="nonzero" d="M541.7,70.1 C538.3,73.7 522.2,78.6 522,77.9 C521.9,77.5 525.1,61.4 528.5,57.8 C531.9,54.2 537.6,54 541.2,57.4 C544.9,60.7 545.1,66.4 541.7,70.1 Z"></path><path fill="#000" fill-rule="nonzero" d="M522.3,78.4 C522.2,78.4 522.1,78.4 522,78.4 C521.8,78.4 521.6,78.2 521.6,78 C521.4,77.4 524.8,61.1 528.3,57.4 C531.7,53.4 537.7,53 541.7,56.4 C545.7,59.8 546.1,65.8 542.7,69.8 C542.5,70 542.3,70.2 542.1,70.4 L542.1,70.4 C538.9,73.7 524.9,78.4 522.3,78.4 Z M535.1,55.4 C532.8,55.4 530.5,56.4 528.9,58.1 C525.9,61.3 523,74.8 522.6,77.4 C525.2,77.1 538.4,72.8 541.4,69.7 L541.4,69.7 C544.6,66.3 544.5,60.9 541,57.7 C539.4,56.2 537.3,55.4 535.1,55.4 L535.1,55.4 Z"></path><path d="M541.7,57.8 L515,86"></path><path fill="#000" fill-rule="nonzero" d="M515,86.3 C514.8,86.3 514.7,86.2 514.7,86 C514.7,85.9 514.7,85.9 514.8,85.8 L541.5,57.6 C541.6,57.5 541.8,57.4 541.9,57.5 C542,57.6 542.1,57.8 542,57.9 C542,57.9 542,58 541.9,58 L515.2,86.2 C515.1,86.3 515,86.3 515,86.3 Z"></path><path fill="#FFF" fill-rule="nonzero" d="M500,58.4 C503.6,61.9 508.1,78.2 507.3,78.4 C506.8,78.5 490.8,74.8 487.3,71.3 C483.8,67.7 483.9,62 487.4,58.5 C490.9,55.1 496.4,55.1 500,58.4 Z"></path><path fill="#000" fill-rule="nonzero" d="M507.3,78.9 C506.1,78.9 490.4,75.2 486.8,71.7 C483,68 483,61.9 486.7,58.2 C488.5,56.4 490.9,55.4 493.4,55.4 L493.4,55.4 C495.9,55.4 498.3,56.4 500.1,58.2 L500.1,58.2 C503.5,61.6 508.1,76.9 507.6,78.6 C507.7,78.6 507.6,78.8 507.3,78.9 L507.3,78.9 Z M493.6,56.3 L493.6,56.3 C488.9,56.3 485,60.1 485.1,64.9 C485.1,67.2 486,69.4 487.6,71 C490.7,74.1 504.3,77.4 506.9,77.9 C506.7,75.3 502.7,61.9 499.7,58.8 L499.7,58.8 C498,57.2 495.9,56.3 493.6,56.3 Z"></path><path d="M487.6,58.1 L514.5,85.5"></path><path fill="#000" fill-rule="nonzero" d="M514.5,85.8 C514.4,85.8 514.4,85.8 514.3,85.7 L487.4,58.3 C487.3,58.2 487.3,58 487.4,57.9 C487.5,57.8 487.7,57.8 487.8,57.9 C487.8,57.9 487.8,57.9 487.8,57.9 L514.7,85.3 C514.8,85.4 514.8,85.6 514.7,85.7 C514.7,85.7 514.6,85.8 514.5,85.8 L514.5,85.8 Z"></path><path fill="#FFF" fill-rule="nonzero" d="M499.8,34.7 C503,37.9 507.1,52.6 506.4,52.7 C506,52.8 491.5,49.5 488.3,46.3 C485.1,43.1 485.1,38 488.2,34.7 C491.4,31.6 496.6,31.5 499.8,34.7 L499.8,34.7 Z"></path><path fill="#000" fill-rule="nonzero" d="M506.4,53.2 C505.3,53.2 491.1,49.9 487.9,46.7 C484.5,43.3 484.5,37.8 487.8,34.4 C491.1,31 496.7,31 500.1,34.3 L500.1,34.3 C503.2,37.4 507.3,51.2 506.9,52.7 C506.8,53 506.7,53.1 506.4,53.2 L506.4,53.2 Z M494,32.9 C489.8,32.9 486.3,36.3 486.3,40.6 C486.3,42.6 487.1,44.6 488.6,46.1 C491.4,48.9 503.4,51.8 505.9,52.3 C505.7,49.9 502.2,38 499.4,35.2 L499.4,35.2 C498,33.6 496.1,32.8 494,32.9 L494,32.9 Z"></path><path d="M488.7,34.4 L515,61.2"></path><path fill="#000" fill-rule="nonzero" d="M515,61.4 C514.9,61.4 514.9,61.4 514.8,61.3 L488.5,34.5 C488.4,34.4 488.4,34.2 488.5,34.1 C488.6,34 488.8,34 488.9,34.1 L515.2,60.9 C515.3,61 515.3,61.2 515.2,61.3 C515.1,61.4 515,61.4 515,61.4 L515,61.4 Z"></path><path fill="#FFF" fill-rule="nonzero" d="M530.4,34.3 C527.2,37.5 523.1,52.2 523.8,52.3 C524.2,52.4 538.7,49.1 541.9,45.9 C545.1,42.7 545.1,37.6 542,34.3 C538.7,31.1 533.6,31.1 530.4,34.3 L530.4,34.3 Z"></path><path fill="#000" fill-rule="nonzero" d="M523.7,52.8 L523.7,52.8 C523.5,52.7 523.3,52.6 523.3,52.4 C522.8,50.9 527,37 530.1,34 L530.1,34 C533.5,30.6 539,30.7 542.4,34.1 C545.8,37.5 545.7,43 542.3,46.4 L542.3,46.4 C539,49.4 524.8,52.8 523.7,52.8 Z M530.7,34.6 C527.9,37.4 524.4,49.3 524.2,51.7 C526.5,51.3 538.7,48.3 541.5,45.5 C544.5,42.5 544.5,37.7 541.6,34.7 C538.6,31.7 533.7,31.6 530.7,34.6 C530.7,34.6 530.7,34.6 530.7,34.6 Z"></path><path d="M541.5,34 L515.2,60.7"></path><path fill="#000" fill-rule="nonzero" d="M515.2,61 C515.1,61 514.9,60.9 514.9,60.8 C514.9,60.7 514.9,60.7 515,60.6 L541.3,33.8 C541.4,33.7 541.6,33.7 541.7,33.8 C541.8,33.9 541.8,34.1 541.7,34.2 L515.4,61 C515.3,61 515.2,61 515.2,61 Z"></path><path fill="#FFF" fill-rule="nonzero" d="M524.1,30 C524.1,35.2 515.5,50.4 514.8,49.9 C514.4,49.6 505.4,35.2 505.4,30 C505.4,24.8 509.6,20.6 514.8,20.6 C519.9,20.6 524.1,24.8 524.1,30 Z"></path><path fill="#000" fill-rule="nonzero" d="M514.8,50.4 C514.7,50.4 514.6,50.4 514.5,50.3 C513.9,49.9 504.8,35.3 504.8,30 C504.8,24.5 509.2,20.1 514.6,20.1 L514.6,20.1 C517.2,20.1 519.7,21.1 521.6,23 C523.5,24.8 524.5,27.4 524.5,30 L524.5,30 C524.5,35 516.6,49.5 515,50.4 C515,50.4 514.9,50.4 514.8,50.4 Z M514.7,21.1 L514.7,21.1 C509.8,21.1 505.8,25.1 505.9,30 C505.9,30 505.9,30 505.9,30 C505.9,34.5 513.4,47 514.9,49.2 C516.7,47.2 523.6,34.4 523.6,29.9 L523.6,29.9 C523.6,25.1 519.6,21.1 514.7,21.1 L514.7,21.1 Z"></path><path d="M515.3,20.7 L515.2,50.7"></path><path fill="#000" fill-rule="nonzero" d="M515.2,51 L515.2,51 C515,51 514.9,50.9 514.9,50.7 L515,20.7 C515,20.5 515.1,20.4 515.3,20.4 L515.3,20.4 C515.5,20.4 515.6,20.5 515.6,20.7 L515.5,50.7 C515.5,50.9 515.3,51 515.2,51 Z"></path><path d="M485.2,85.5 L515,109.4"></path><path fill="#000" fill-rule="nonzero" d="M515,109.7 C514.9,109.7 514.9,109.7 514.8,109.6 L485,85.8 C484.9,85.7 484.8,85.5 485,85.4 C485.1,85.3 485.3,85.2 485.4,85.3 L515.1,109.2 C515.2,109.3 515.3,109.5 515.2,109.6 C515.2,109.7 515.1,109.7 515,109.7 L515,109.7 Z"></path><polygon fill="#000" fill-rule="nonzero" points="273.6 256.3 258.3 299.6 273.6 299.6"></polygon><path fill="#000" fill-rule="nonzero" d="M330,358.6 C329.7,358.6 329.5,358.4 329.5,358.1 C329.5,357.9 329.6,357.8 329.7,357.7 C353.4,344 400.1,329.4 433.3,321.7 C433.6,321.6 433.9,321.8 433.9,322.1 C433.9,322.4 433.8,322.7 433.5,322.7 C400.3,330.4 353.8,345 330.1,358.7 C330.1,358.6 330.1,358.6 330,358.6 Z"></path><circle cx="339" cy="360.3" r="1.3" fill="#000" fill-rule="nonzero"></circle><circle cx="426.3" cy="330.3" r="1.3" fill="#000" fill-rule="nonzero"></circle><circle cx="415.6" cy="333" r="1.3" fill="#000" fill-rule="nonzero"></circle><circle cx="403.6" cy="336.3" r="1.3" fill="#000" fill-rule="nonzero"></circle><circle cx="383" cy="343" r="1.3" fill="#000" fill-rule="nonzero"></circle><circle cx="359" cy="351" r="1.3" fill="#000" fill-rule="nonzero"></circle><circle cx="370.3" cy="347" r="1.3" fill="#000" fill-rule="nonzero"></circle><circle cx="348.3" cy="355.6" r="1.3" fill="#000" fill-rule="nonzero"></circle><circle cx="393.6" cy="339" r="1.3" fill="#000" fill-rule="nonzero"></circle><circle cx="344.3" cy="366.3" r="1.3" fill="#000" fill-rule="nonzero"></circle><circle cx="431.6" cy="336.3" r="1.3" fill="#000" fill-rule="nonzero"></circle><circle cx="421" cy="339" r="1.3" fill="#000" fill-rule="nonzero"></circle><circle cx="409" cy="342.3" r="1.3" fill="#000" fill-rule="nonzero"></circle><circle cx="388.3" cy="349" r="1.3" fill="#000" fill-rule="nonzero"></circle><circle cx="364.3" cy="357" r="1.3" fill="#000" fill-rule="nonzero"></circle><circle cx="375.6" cy="353" r="1.3" fill="#000" fill-rule="nonzero"></circle><circle cx="353.6" cy="361.6" r="1.3" fill="#000" fill-rule="nonzero"></circle><circle cx="399" cy="345" r="1.3" fill="#000" fill-rule="nonzero"></circle><path fill="#B4A6DB" fill-rule="nonzero" d="M482.5,482.6 L754,482.6 L754,301.1 C713,301.1 706.5,343.6 687.5,355.1 C668.5,366.6 635,345.6 613,359.6 C591,373.6 594.5,403.6 571,416.6 C547.5,429.6 496.5,412.1 482.5,482.6 Z" opacity=".5"></path><circle cx="748" cy="382.6" r="25" fill="#FFF" fill-rule="nonzero"></circle><path fill="#000" fill-rule="nonzero" d="M748,408.3 C733.8,408.3 722.3,396.8 722.3,382.6 C722.3,368.4 733.8,356.9 748,356.9 C762.2,356.9 773.7,368.4 773.7,382.6 C773.7,396.8 762.2,408.3 748,408.3 Z M748,358.3 C734.6,358.3 723.7,369.2 723.7,382.6 C723.7,396 734.6,406.9 748,406.9 C761.4,406.9 772.3,396 772.3,382.6 C772.3,382.6 772.3,382.6 772.3,382.6 C772.2,369.2 761.4,358.3 748,358.3 Z"></path><path fill="#F9F4EC" fill-rule="nonzero" d="M476.5,472.6 L748,472.6 L748,291.1 C707,291.1 700.5,333.6 681.5,345.1 C662.5,356.6 629,335.6 607,349.6 C585,363.6 588.5,393.6 565,406.6 C541.5,419.6 490.5,402.1 476.5,472.6 Z"></path><path fill="#000" fill-rule="nonzero" d="M748,473.1 L476.5,473.1 C476.2,473.1 476,472.9 476,472.6 C476,472.6 476,472.5 476,472.5 C486.3,420.7 516.7,416.1 541.1,412.3 C550,410.9 558.5,409.6 564.8,406.2 C576.7,399.6 581.7,388.3 586.6,377.4 C591.2,366.9 596,356.1 606.8,349.3 C618.5,341.9 633.2,344.1 647.4,346.3 C660.3,348.3 672.4,350.2 681.3,344.8 C687.8,340.9 692.9,333.2 698.3,325 C708.9,308.9 721,290.7 748.1,290.7 C748.4,290.7 748.6,290.9 748.6,291.2 L748.6,472.7 C748.5,472.9 748.3,473.1 748,473.1 C748,473.1 748,473.1 748,473.1 Z M477.1,472.1 L747.5,472.1 L747.5,291.6 C721.3,291.8 709.5,309.7 699.1,325.4 C693.6,333.7 688.5,341.5 681.8,345.5 C672.6,351.1 660.3,349.2 647.2,347.2 C633.2,345 618.6,342.8 607.3,350 C596.8,356.7 592,367.4 587.5,377.7 C582.6,388.8 577.5,400.2 565.3,407 C558.9,410.6 550.3,411.9 541.3,413.3 C517.2,417 487.3,421.6 477.1,472.1 Z"></path><path fill="#000" fill-rule="nonzero" d="M748,382.6 L723,382.6 C723,396.4 734.2,407.6 748,407.6 C761.8,407.6 773,396.4 773,382.6 C773,368.8 761.8,357.6 748,357.6 C748,357.6 748.5,383.1 748,382.6 Z"></path><path fill="#FFF" fill-rule="nonzero" d="M748,397.8 C747.6,397.8 747.3,397.5 747.3,397.1 L747.3,397.1 L747.3,382.6 C747.3,382.2 747.6,381.9 748,381.9 L748,381.9 L764,381.9 C764.4,381.9 764.7,382.2 764.7,382.6 C764.7,383 764.4,383.3 764,383.3 L748.7,383.3 L748.7,397.1 C748.7,397.5 748.4,397.8 748,397.8 Z"></path><g fill="#000" fill-rule="nonzero" transform="translate(243 26)"><circle cx="101.305" cy="1.599" r="1" transform="rotate(-19.475 101.305 1.599)"></circle><circle cx="96.516" cy="3.316" r="1" transform="rotate(-19.475 96.516 3.316)"></circle><circle cx="91.821" cy="5.001" r="1" transform="rotate(-19.475 91.821 5)"></circle><circle cx="86.998" cy="6.624" r="1" transform="rotate(-19.475 86.998 6.624)"></circle><circle cx="82.303" cy="8.308" r="1" transform="rotate(-19.475 82.303 8.308)"></circle><circle cx="77.608" cy="9.993" r="1" transform="rotate(-19.475 77.608 9.993)"></circle><circle cx="72.819" cy="11.71" r="1" transform="rotate(-19.475 72.819 11.71)"></circle><circle cx="68.091" cy="13.3" r="1" transform="rotate(-19.475 68.09 13.3)"></circle><circle cx="63.301" cy="15.018" r="1" transform="rotate(-19.475 63.301 15.018)"></circle><circle cx="58.605" cy="16.699" r="1" transform="rotate(-19.475 58.605 16.7)"></circle><circle cx="53.815" cy="18.417" r="1" transform="rotate(-19.475 53.815 18.417)"></circle><circle cx="49.12" cy="20.101" r="1" transform="rotate(-19.475 49.12 20.101)"></circle><circle cx="44.301" cy="21.723" r="1" transform="rotate(-19.475 44.3 21.723)"></circle><circle cx="39.605" cy="23.407" r="1" transform="rotate(-19.475 39.605 23.407)"></circle><circle cx="34.91" cy="25.092" r="1" transform="rotate(-19.475 34.91 25.092)"></circle><circle cx="30.121" cy="26.809" r="1" transform="rotate(-19.475 30.121 26.81)"></circle><circle cx="25.393" cy="28.4" r="1" transform="rotate(-19.475 25.393 28.4)"></circle><circle cx="20.603" cy="30.117" r="1" transform="rotate(-19.475 20.603 30.117)"></circle><circle cx="15.908" cy="31.801" r="1" transform="rotate(-19.475 15.908 31.801)"></circle><circle cx="11.119" cy="33.519" r="1" transform="rotate(-19.475 11.119 33.52)"></circle><circle cx="102.81" cy="5.904" r="1" transform="rotate(-19.475 102.81 5.904)"></circle><circle cx="98.021" cy="7.622" r="1" transform="rotate(-19.475 98.02 7.622)"></circle><circle cx="93.292" cy="9.212" r="1" transform="rotate(-19.475 93.292 9.212)"></circle><circle cx="88.597" cy="10.896" r="1" transform="rotate(-19.475 88.597 10.896)"></circle><circle cx="83.808" cy="12.614" r="1" transform="rotate(-19.475 83.808 12.614)"></circle><circle cx="79.113" cy="14.298" r="1" transform="rotate(-19.475 79.113 14.298)"></circle><circle cx="74.323" cy="16.016" r="1" transform="rotate(-19.475 74.323 16.016)"></circle><circle cx="69.595" cy="17.606" r="1" transform="rotate(-19.475 69.595 17.606)"></circle><circle cx="64.807" cy="19.319" r="1" transform="rotate(-19.475 64.807 19.319)"></circle><circle cx="60.112" cy="21.003" r="1" transform="rotate(-19.475 60.112 21.003)"></circle><circle cx="55.323" cy="22.721" r="1" transform="rotate(-19.475 55.323 22.72)"></circle><circle cx="50.594" cy="24.311" r="1" transform="rotate(-19.475 50.594 24.31)"></circle><circle cx="45.899" cy="25.995" r="1" transform="rotate(-19.475 45.9 25.995)"></circle><circle cx="41.11" cy="27.713" r="1" transform="rotate(-19.475 41.11 27.713)"></circle><circle cx="36.415" cy="29.397" r="1" transform="rotate(-19.475 36.415 29.397)"></circle><circle cx="31.592" cy="31.02" r="1" transform="rotate(-19.475 31.592 31.02)"></circle><circle cx="26.897" cy="32.705" r="1" transform="rotate(-19.475 26.897 32.705)"></circle><circle cx="22.108" cy="34.422" r="1" transform="rotate(-19.475 22.108 34.422)"></circle><circle cx="17.413" cy="36.107" r="1" transform="rotate(-19.475 17.413 36.107)"></circle><circle cx="12.684" cy="37.697" r="1" transform="rotate(-19.475 12.684 37.697)"></circle><circle cx="104.314" cy="10.209" r="1" transform="rotate(-19.475 104.314 10.21)"></circle><circle cx="99.619" cy="11.893" r="1" transform="rotate(-19.475 99.62 11.893)"></circle><circle cx="94.797" cy="13.517" r="1" transform="rotate(-19.475 94.797 13.517)"></circle><circle cx="90.104" cy="15.2" r="1" transform="rotate(-19.475 90.104 15.2)"></circle><circle cx="85.315" cy="16.917" r="1" transform="rotate(-19.475 85.315 16.917)"></circle><circle cx="80.62" cy="18.602" r="1" transform="rotate(-19.475 80.62 18.602)"></circle><circle cx="75.797" cy="20.225" r="1" transform="rotate(-19.475 75.797 20.225)"></circle><circle cx="71.101" cy="21.906" r="1" transform="rotate(-19.475 71.1 21.906)"></circle><circle cx="66.311" cy="23.624" r="1" transform="rotate(-19.475 66.311 23.624)"></circle><circle cx="61.616" cy="25.308" r="1" transform="rotate(-19.475 61.616 25.308)"></circle><circle cx="56.888" cy="26.898" r="1" transform="rotate(-19.475 56.888 26.898)"></circle><circle cx="52.099" cy="28.616" r="1" transform="rotate(-19.475 52.099 28.616)"></circle><circle cx="47.404" cy="30.3" r="1" transform="rotate(-19.475 47.404 30.3)"></circle><circle cx="42.614" cy="32.018" r="1" transform="rotate(-19.475 42.614 32.018)"></circle><circle cx="37.919" cy="33.702" r="1" transform="rotate(-19.475 37.92 33.702)"></circle><circle cx="33.096" cy="35.326" r="1" transform="rotate(-19.475 33.097 35.326)"></circle><circle cx="28.404" cy="37.008" r="1" transform="rotate(-19.475 28.404 37.008)"></circle><circle cx="23.709" cy="38.693" r="1" transform="rotate(-19.475 23.71 38.693)"></circle><circle cx="18.92" cy="40.41" r="1" transform="rotate(-19.475 18.92 40.41)"></circle><circle cx="105.822" cy="14.513" r="1" transform="rotate(-19.475 105.822 14.513)"></circle><circle cx="101.093" cy="16.103" r="1" transform="rotate(-19.475 101.093 16.103)"></circle><circle cx="96.304" cy="17.82" r="1" transform="rotate(-19.475 96.304 17.82)"></circle><circle cx="91.609" cy="19.505" r="1" transform="rotate(-19.475 91.609 19.505)"></circle><circle cx="86.82" cy="21.222" r="1" transform="rotate(-19.475 86.82 21.222)"></circle><circle cx="82.091" cy="22.813" r="1" transform="rotate(-19.475 82.091 22.812)"></circle><circle cx="77.394" cy="24.494" r="1" transform="rotate(-19.475 77.394 24.494)"></circle><circle cx="72.605" cy="26.211" r="1" transform="rotate(-19.475 72.605 26.211)"></circle><circle cx="67.91" cy="27.896" r="1" transform="rotate(-19.475 67.91 27.896)"></circle><circle cx="63.121" cy="29.613" r="1" transform="rotate(-19.475 63.12 29.613)"></circle><circle cx="58.392" cy="31.203" r="1" transform="rotate(-19.475 58.392 31.203)"></circle><circle cx="53.603" cy="32.921" r="1" transform="rotate(-19.475 53.603 32.921)"></circle><circle cx="48.911" cy="34.604" r="1" transform="rotate(-19.475 48.91 34.604)"></circle><circle cx="44.122" cy="36.322" r="1" transform="rotate(-19.475 44.122 36.322)"></circle><circle cx="39.393" cy="37.911" r="1" transform="rotate(-19.475 39.393 37.911)"></circle><circle cx="34.698" cy="39.596" r="1" transform="rotate(-19.475 34.698 39.596)"></circle><circle cx="29.909" cy="41.313" r="1" transform="rotate(-19.475 29.909 41.313)"></circle><circle cx="107.293" cy="18.724" r="1" transform="rotate(-19.475 107.293 18.724)"></circle><circle cx="102.598" cy="20.408" r="1" transform="rotate(-19.475 102.598 20.408)"></circle><circle cx="97.903" cy="22.092" r="1" transform="rotate(-19.475 97.903 22.092)"></circle><circle cx="93.113" cy="23.81" r="1" transform="rotate(-19.475 93.113 23.81)"></circle><circle cx="88.418" cy="25.494" r="1" transform="rotate(-19.475 88.418 25.494)"></circle><circle cx="83.594" cy="27.115" r="1" transform="rotate(-19.475 83.594 27.115)"></circle><circle cx="78.899" cy="28.799" r="1" transform="rotate(-19.475 78.899 28.799)"></circle><circle cx="74.112" cy="30.515" r="1" transform="rotate(-19.475 74.112 30.515)"></circle><circle cx="69.417" cy="32.199" r="1" transform="rotate(-19.475 69.417 32.2)"></circle><circle cx="64.595" cy="33.823" r="1" transform="rotate(-19.475 64.595 33.823)"></circle><circle cx="59.9" cy="35.507" r="1" transform="rotate(-19.475 59.9 35.507)"></circle><circle cx="55.205" cy="37.191" r="1" transform="rotate(-19.475 55.205 37.191)"></circle><circle cx="50.415" cy="38.909" r="1" transform="rotate(-19.475 50.415 38.909)"></circle><circle cx="45.687" cy="40.499" r="1" transform="rotate(-19.475 45.687 40.499)"></circle><circle cx="40.898" cy="42.217" r="1" transform="rotate(-19.475 40.898 42.217)"></circle><circle cx="36.203" cy="43.901" r="1" transform="rotate(-19.475 36.203 43.901)"></circle><circle cx="108.891" cy="22.995" r="1" transform="rotate(-19.475 108.891 22.995)"></circle><circle cx="104.102" cy="24.713" r="1" transform="rotate(-19.475 104.102 24.713)"></circle><circle cx="99.41" cy="26.396" r="1" transform="rotate(-19.475 99.41 26.396)"></circle><circle cx="94.619" cy="28.11" r="1" transform="rotate(-19.475 94.619 28.11)"></circle><circle cx="89.891" cy="29.701" r="1" transform="rotate(-19.475 89.89 29.7)"></circle><circle cx="85.101" cy="31.418" r="1" transform="rotate(-19.475 85.101 31.418)"></circle><circle cx="80.406" cy="33.103" r="1" transform="rotate(-19.475 80.406 33.103)"></circle><circle cx="75.617" cy="34.82" r="1" transform="rotate(-19.475 75.617 34.82)"></circle><circle cx="70.888" cy="36.41" r="1" transform="rotate(-19.475 70.888 36.41)"></circle><circle cx="66.193" cy="38.094" r="1" transform="rotate(-19.475 66.193 38.094)"></circle><circle cx="61.404" cy="39.812" r="1" transform="rotate(-19.475 61.404 39.812)"></circle><circle cx="56.709" cy="41.497" r="1" transform="rotate(-19.475 56.709 41.497)"></circle><circle cx="51.92" cy="43.214" r="1" transform="rotate(-19.475 51.92 43.214)"></circle><circle cx="47.191" cy="44.804" r="1" transform="rotate(-19.475 47.191 44.804)"></circle><circle cx="110.399" cy="27.299" r="1" transform="rotate(-19.475 110.399 27.3)"></circle><circle cx="105.609" cy="29.017" r="1" transform="rotate(-19.475 105.61 29.017)"></circle><circle cx="100.912" cy="30.698" r="1" transform="rotate(-19.475 100.913 30.698)"></circle><circle cx="96.123" cy="32.416" r="1" transform="rotate(-19.475 96.123 32.416)"></circle><circle cx="91.395" cy="34.006" r="1" transform="rotate(-19.475 91.395 34.006)"></circle><circle cx="86.606" cy="35.723" r="1" transform="rotate(-19.475 86.606 35.723)"></circle><circle cx="81.91" cy="37.408" r="1" transform="rotate(-19.475 81.91 37.408)"></circle><circle cx="77.215" cy="39.092" r="1" transform="rotate(-19.475 77.215 39.092)"></circle><circle cx="72.393" cy="40.715" r="1" transform="rotate(-19.475 72.393 40.715)"></circle><circle cx="67.698" cy="42.4" r="1" transform="rotate(-19.475 67.698 42.4)"></circle><circle cx="62.908" cy="44.117" r="1" transform="rotate(-19.475 62.908 44.117)"></circle><circle cx="58.216" cy="45.8" r="1" transform="rotate(-19.475 58.216 45.8)"></circle><circle cx="111.903" cy="31.604" r="1" transform="rotate(-19.475 111.903 31.604)"></circle><circle cx="107.112" cy="33.319" r="1" transform="rotate(-19.475 107.112 33.319)"></circle><circle cx="102.417" cy="35.003" r="1" transform="rotate(-19.475 102.417 35.003)"></circle><circle cx="97.594" cy="36.627" r="1" transform="rotate(-19.475 97.594 36.627)"></circle><circle cx="92.899" cy="38.311" r="1" transform="rotate(-19.475 92.9 38.31)"></circle><circle cx="88.204" cy="39.995" r="1" transform="rotate(-19.475 88.204 39.995)"></circle><circle cx="83.418" cy="41.711" r="1" transform="rotate(-19.475 83.418 41.711)"></circle><circle cx="78.689" cy="43.301" r="1" transform="rotate(-19.475 78.69 43.301)"></circle><circle cx="73.9" cy="45.019" r="1" transform="rotate(-19.475 73.9 45.019)"></circle><circle cx="69.205" cy="46.703" r="1" transform="rotate(-19.475 69.205 46.703)"></circle><circle cx="113.406" cy="35.906" r="1" transform="rotate(-19.475 113.406 35.906)"></circle><circle cx="108.619" cy="37.622" r="1" transform="rotate(-19.475 108.62 37.622)"></circle><circle cx="103.891" cy="39.212" r="1" transform="rotate(-19.475 103.89 39.213)"></circle><circle cx="99.196" cy="40.897" r="1" transform="rotate(-19.475 99.196 40.897)"></circle><circle cx="94.407" cy="42.614" r="1" transform="rotate(-19.475 94.407 42.614)"></circle><circle cx="89.711" cy="44.299" r="1" transform="rotate(-19.475 89.711 44.299)"></circle><circle cx="84.922" cy="46.016" r="1" transform="rotate(-19.475 84.922 46.016)"></circle><circle cx="80.194" cy="47.606" r="1" transform="rotate(-19.475 80.194 47.607)"></circle><circle cx="114.913" cy="40.21" r="1" transform="rotate(-19.475 114.913 40.21)"></circle><circle cx="110.218" cy="41.894" r="1" transform="rotate(-19.475 110.218 41.894)"></circle><circle cx="105.395" cy="43.518" r="1" transform="rotate(-19.475 105.395 43.518)"></circle><circle cx="100.7" cy="45.202" r="1" transform="rotate(-19.475 100.7 45.202)"></circle><circle cx="95.911" cy="46.92" r="1" transform="rotate(-19.475 95.911 46.92)"></circle><circle cx="91.216" cy="48.604" r="1" transform="rotate(-19.475 91.216 48.604)"></circle><circle cx="116.417" cy="44.515" r="1" transform="rotate(-19.475 116.417 44.515)"></circle><circle cx="111.689" cy="46.105" r="1" transform="rotate(-19.475 111.689 46.105)"></circle><circle cx="106.9" cy="47.823" r="1" transform="rotate(-19.475 106.9 47.823)"></circle><circle cx="102.205" cy="49.507" r="1" transform="rotate(-19.475 102.205 49.507)"></circle><circle cx="117.891" cy="48.724" r="1" transform="rotate(-19.475 117.891 48.724)"></circle><circle cx="113.196" cy="50.409" r="1" transform="rotate(-19.475 113.196 50.409)"></circle><circle cx="6.391" cy="35.109" r="1" transform="rotate(-19.475 6.39 35.11)"></circle><circle cx="1.696" cy="36.794" r="1" transform="rotate(-19.475 1.696 36.794)"></circle><circle cx="7.895" cy="39.414" r="1" transform="rotate(-19.475 7.895 39.414)"></circle></g><circle cx="569.7" cy="376.3" r="1" fill="#000" fill-rule="nonzero"></circle><circle cx="574.5" cy="376.3" r="1" fill="#000" fill-rule="nonzero"></circle><circle cx="579.3" cy="376.3" r="1" fill="#000" fill-rule="nonzero"></circle><circle cx="584.1" cy="376.3" r="1" fill="#000" fill-rule="nonzero"></circle><circle cx="564.8" cy="380.9" r="1" fill="#000" fill-rule="nonzero"></circle><circle cx="569.7" cy="380.9" r="1" fill="#000" fill-rule="nonzero"></circle><circle cx="574.5" cy="380.9" r="1" fill="#000" fill-rule="nonzero"></circle><circle cx="579.3" cy="380.9" r="1" fill="#000" fill-rule="nonzero"></circle><circle cx="564.8" cy="385.4" r="1" fill="#000" fill-rule="nonzero"></circle><circle cx="569.7" cy="385.4" r="1" fill="#000" fill-rule="nonzero"></circle><circle cx="574.5" cy="385.4" r="1" fill="#000" fill-rule="nonzero"></circle><circle cx="579.3" cy="385.4" r="1" fill="#000" fill-rule="nonzero"></circle><circle cx="560" cy="390" r="1" fill="#000" fill-rule="nonzero"></circle><circle cx="564.8" cy="390" r="1" fill="#000" fill-rule="nonzero"></circle><circle cx="569.7" cy="390" r="1" fill="#000" fill-rule="nonzero"></circle><circle cx="574.5" cy="390" r="1" fill="#000" fill-rule="nonzero"></circle><circle cx="579.3" cy="390" r="1" fill="#000" fill-rule="nonzero"></circle><circle cx="555.2" cy="394.5" r="1" fill="#000" fill-rule="nonzero"></circle><circle cx="560" cy="394.5" r="1" fill="#000" fill-rule="nonzero"></circle><circle cx="564.8" cy="394.5" r="1" fill="#000" fill-rule="nonzero"></circle><circle cx="569.7" cy="394.5" r="1" fill="#000" fill-rule="nonzero"></circle><circle cx="574.5" cy="394.5" r="1" fill="#000" fill-rule="nonzero"></circle><circle cx="550.3" cy="399.1" r="1" fill="#000" fill-rule="nonzero"></circle><circle cx="555.2" cy="399.1" r="1" fill="#000" fill-rule="nonzero"></circle><circle cx="560" cy="399.1" r="1" fill="#000" fill-rule="nonzero"></circle><circle cx="564.8" cy="399.1" r="1" fill="#000" fill-rule="nonzero"></circle><circle cx="569.7" cy="399.1" r="1" fill="#000" fill-rule="nonzero"></circle><circle cx="574.5" cy="399.1" r="1" fill="#000" fill-rule="nonzero"></circle><circle cx="545.5" cy="403.6" r="1" fill="#000" fill-rule="nonzero"></circle><circle cx="550.3" cy="403.6" r="1" fill="#000" fill-rule="nonzero"></circle><circle cx="555.2" cy="403.6" r="1" fill="#000" fill-rule="nonzero"></circle><circle cx="560" cy="403.6" r="1" fill="#000" fill-rule="nonzero"></circle><circle cx="564.8" cy="403.6" r="1" fill="#000" fill-rule="nonzero"></circle><circle cx="569.7" cy="403.6" r="1" fill="#000" fill-rule="nonzero"></circle><circle cx="516.5" cy="408.2" r="1" fill="#000" fill-rule="nonzero"></circle><circle cx="521.4" cy="408.2" r="1" fill="#000" fill-rule="nonzero"></circle><circle cx="526.2" cy="408.2" r="1" fill="#000" fill-rule="nonzero"></circle><circle cx="531" cy="408.2" r="1" fill="#000" fill-rule="nonzero"></circle><circle cx="535.8" cy="408.2" r="1" fill="#000" fill-rule="nonzero"></circle><circle cx="540.7" cy="408.2" r="1" fill="#000" fill-rule="nonzero"></circle><circle cx="545.5" cy="408.1" r="1" fill="#000" fill-rule="nonzero"></circle><circle cx="550.3" cy="408.1" r="1" fill="#000" fill-rule="nonzero"></circle><circle cx="555.2" cy="408.1" r="1" fill="#000" fill-rule="nonzero"></circle><circle cx="560" cy="408.1" r="1" fill="#000" fill-rule="nonzero"></circle><circle cx="502" cy="412.7" r="1" fill="#000" fill-rule="nonzero"></circle><circle cx="506.9" cy="412.7" r="1" fill="#000" fill-rule="nonzero"></circle><circle cx="511.7" cy="412.7" r="1" fill="#000" fill-rule="nonzero"></circle><circle cx="516.5" cy="412.7" r="1" fill="#000" fill-rule="nonzero"></circle><circle cx="521.4" cy="412.7" r="1" fill="#000" fill-rule="nonzero"></circle><circle cx="526.2" cy="412.7" r="1" fill="#000" fill-rule="nonzero"></circle><circle cx="531" cy="412.7" r="1" fill="#000" fill-rule="nonzero"></circle><circle cx="535.8" cy="412.7" r="1" fill="#000" fill-rule="nonzero"></circle><circle cx="540.7" cy="412.7" r="1" fill="#000" fill-rule="nonzero"></circle><circle cx="492.4" cy="417.3" r="1" fill="#000" fill-rule="nonzero"></circle><circle cx="497.2" cy="417.2" r="1" fill="#000" fill-rule="nonzero"></circle><circle cx="502" cy="417.2" r="1" fill="#000" fill-rule="nonzero"></circle><circle cx="506.9" cy="417.2" r="1" fill="#000" fill-rule="nonzero"></circle><circle cx="511.7" cy="417.2" r="1" fill="#000" fill-rule="nonzero"></circle><circle cx="516.5" cy="417.2" r="1" fill="#000" fill-rule="nonzero"></circle><circle cx="482.7" cy="421.8" r="1" fill="#000" fill-rule="nonzero"></circle><circle cx="487.5" cy="421.8" r="1" fill="#000" fill-rule="nonzero"></circle><circle cx="492.4" cy="421.8" r="1" fill="#000" fill-rule="nonzero"></circle><circle cx="497.2" cy="421.8" r="1" fill="#000" fill-rule="nonzero"></circle><circle cx="502" cy="421.8" r="1" fill="#000" fill-rule="nonzero"></circle><circle cx="506.9" cy="421.8" r="1" fill="#000" fill-rule="nonzero"></circle><circle cx="477.9" cy="426.4" r="1" fill="#000" fill-rule="nonzero"></circle><circle cx="482.7" cy="426.4" r="1" fill="#000" fill-rule="nonzero"></circle><circle cx="487.5" cy="426.4" r="1" fill="#000" fill-rule="nonzero"></circle><circle cx="492.4" cy="426.4" r="1" fill="#000" fill-rule="nonzero"></circle><circle cx="497.2" cy="426.4" r="1" fill="#000" fill-rule="nonzero"></circle><circle cx="473.1" cy="430.9" r="1" fill="#000" fill-rule="nonzero"></circle><circle cx="477.9" cy="430.9" r="1" fill="#000" fill-rule="nonzero"></circle><circle cx="482.7" cy="430.9" r="1" fill="#000" fill-rule="nonzero"></circle><circle cx="487.5" cy="430.9" r="1" fill="#000" fill-rule="nonzero"></circle><circle cx="492.4" cy="430.9" r="1" fill="#000" fill-rule="nonzero"></circle><circle cx="468.2" cy="435.4" r="1" fill="#000" fill-rule="nonzero"></circle><circle cx="473.1" cy="435.4" r="1" fill="#000" fill-rule="nonzero"></circle><circle cx="477.9" cy="435.4" r="1" fill="#000" fill-rule="nonzero"></circle><circle cx="482.7" cy="435.4" r="1" fill="#000" fill-rule="nonzero"></circle><circle cx="487.5" cy="435.4" r="1" fill="#000" fill-rule="nonzero"></circle><circle cx="492.4" cy="435.4" r="1" fill="#000" fill-rule="nonzero"></circle><circle cx="584.2" cy="357.4" r="1" fill="#000" fill-rule="nonzero"></circle><circle cx="579.3" cy="362" r="1" fill="#000" fill-rule="nonzero"></circle><circle cx="584.2" cy="362" r="1" fill="#000" fill-rule="nonzero"></circle><circle cx="574.5" cy="366.5" r="1" fill="#000" fill-rule="nonzero"></circle><circle cx="579.3" cy="366.5" r="1" fill="#000" fill-rule="nonzero"></circle><circle cx="584.2" cy="366.5" r="1" fill="#000" fill-rule="nonzero"></circle><circle cx="569.7" cy="371" r="1" fill="#000" fill-rule="nonzero"></circle><circle cx="574.5" cy="371" r="1" fill="#000" fill-rule="nonzero"></circle><circle cx="579.3" cy="371" r="1" fill="#000" fill-rule="nonzero"></circle><circle cx="584.2" cy="371" r="1" fill="#000" fill-rule="nonzero"></circle><circle cx="589" cy="366.5" r="1" fill="#000" fill-rule="nonzero"></circle><circle cx="589" cy="371" r="1" fill="#000" fill-rule="nonzero"></circle><circle cx="569.7" cy="376.3" r="1" fill="#000" fill-rule="nonzero"></circle><circle cx="574.5" cy="376.3" r="1" fill="#000" fill-rule="nonzero"></circle><circle cx="579.3" cy="376.3" r="1" fill="#000" fill-rule="nonzero"></circle><circle cx="584.1" cy="376.3" r="1" fill="#000" fill-rule="nonzero"></circle><circle cx="584.1" cy="380.7" r="1" fill="#000" fill-rule="nonzero"></circle><circle cx="564.8" cy="380.8" r="1" fill="#000" fill-rule="nonzero"></circle><circle cx="569.7" cy="380.8" r="1" fill="#000" fill-rule="nonzero"></circle><circle cx="574.5" cy="380.8" r="1" fill="#000" fill-rule="nonzero"></circle><circle cx="579.3" cy="380.8" r="1" fill="#000" fill-rule="nonzero"></circle><circle cx="564.8" cy="385.4" r="1" fill="#000" fill-rule="nonzero"></circle><circle cx="569.7" cy="385.4" r="1" fill="#000" fill-rule="nonzero"></circle><circle cx="574.5" cy="385.4" r="1" fill="#000" fill-rule="nonzero"></circle><circle cx="579.3" cy="385.4" r="1" fill="#000" fill-rule="nonzero"></circle><circle cx="560" cy="389.9" r="1" fill="#000" fill-rule="nonzero"></circle><circle cx="564.8" cy="389.9" r="1" fill="#000" fill-rule="nonzero"></circle><circle cx="569.7" cy="389.9" r="1" fill="#000" fill-rule="nonzero"></circle><circle cx="574.5" cy="389.9" r="1" fill="#000" fill-rule="nonzero"></circle><circle cx="579.3" cy="389.9" r="1" fill="#000" fill-rule="nonzero"></circle><circle cx="555.2" cy="394.4" r="1" fill="#000" fill-rule="nonzero"></circle><circle cx="560" cy="394.4" r="1" fill="#000" fill-rule="nonzero"></circle><circle cx="564.8" cy="394.4" r="1" fill="#000" fill-rule="nonzero"></circle><circle cx="569.7" cy="394.4" r="1" fill="#000" fill-rule="nonzero"></circle><circle cx="574.5" cy="394.4" r="1" fill="#000" fill-rule="nonzero"></circle><circle cx="550.3" cy="399" r="1" fill="#000" fill-rule="nonzero"></circle><circle cx="555.2" cy="399" r="1" fill="#000" fill-rule="nonzero"></circle><circle cx="560" cy="399" r="1" fill="#000" fill-rule="nonzero"></circle><circle cx="564.8" cy="399" r="1" fill="#000" fill-rule="nonzero"></circle><circle cx="569.7" cy="399" r="1" fill="#000" fill-rule="nonzero"></circle><circle cx="574.5" cy="399" r="1" fill="#000" fill-rule="nonzero"></circle><circle cx="545.5" cy="403.5" r="1" fill="#000" fill-rule="nonzero"></circle><circle cx="550.3" cy="403.5" r="1" fill="#000" fill-rule="nonzero"></circle><circle cx="555.2" cy="403.5" r="1" fill="#000" fill-rule="nonzero"></circle><circle cx="560" cy="403.5" r="1" fill="#000" fill-rule="nonzero"></circle><circle cx="564.8" cy="403.5" r="1" fill="#000" fill-rule="nonzero"></circle><circle cx="569.7" cy="403.5" r="1" fill="#000" fill-rule="nonzero"></circle><circle cx="516.5" cy="408.1" r="1" fill="#000" fill-rule="nonzero"></circle><circle cx="521.4" cy="408.1" r="1" fill="#000" fill-rule="nonzero"></circle><circle cx="526.2" cy="408.1" r="1" fill="#000" fill-rule="nonzero"></circle><circle cx="531" cy="408.1" r="1" fill="#000" fill-rule="nonzero"></circle><circle cx="535.8" cy="408.1" r="1" fill="#000" fill-rule="nonzero"></circle><circle cx="540.7" cy="408.1" r="1" fill="#000" fill-rule="nonzero"></circle><circle cx="545.5" cy="408.1" r="1" fill="#000" fill-rule="nonzero"></circle><circle cx="550.3" cy="408.1" r="1" fill="#000" fill-rule="nonzero"></circle><circle cx="555.2" cy="408.1" r="1" fill="#000" fill-rule="nonzero"></circle><circle cx="560" cy="408.1" r="1" fill="#000" fill-rule="nonzero"></circle><circle cx="502" cy="412.6" r="1" fill="#000" fill-rule="nonzero"></circle><circle cx="506.9" cy="412.6" r="1" fill="#000" fill-rule="nonzero"></circle><circle cx="511.7" cy="412.6" r="1" fill="#000" fill-rule="nonzero"></circle><circle cx="516.5" cy="412.6" r="1" fill="#000" fill-rule="nonzero"></circle><circle cx="521.4" cy="412.6" r="1" fill="#000" fill-rule="nonzero"></circle><circle cx="526.2" cy="412.6" r="1" fill="#000" fill-rule="nonzero"></circle><circle cx="531" cy="412.6" r="1" fill="#000" fill-rule="nonzero"></circle><circle cx="535.8" cy="412.6" r="1" fill="#000" fill-rule="nonzero"></circle><circle cx="540.7" cy="412.6" r="1" fill="#000" fill-rule="nonzero"></circle><circle cx="492.4" cy="417.2" r="1" fill="#000" fill-rule="nonzero"></circle><circle cx="497.2" cy="417.2" r="1" fill="#000" fill-rule="nonzero"></circle><circle cx="502" cy="417.2" r="1" fill="#000" fill-rule="nonzero"></circle><circle cx="506.9" cy="417.2" r="1" fill="#000" fill-rule="nonzero"></circle><circle cx="511.7" cy="417.2" r="1" fill="#000" fill-rule="nonzero"></circle><circle cx="516.5" cy="417.2" r="1" fill="#000" fill-rule="nonzero"></circle><circle cx="482.7" cy="421.7" r="1" fill="#000" fill-rule="nonzero"></circle><circle cx="487.5" cy="421.7" r="1" fill="#000" fill-rule="nonzero"></circle><circle cx="492.4" cy="421.7" r="1" fill="#000" fill-rule="nonzero"></circle><circle cx="497.2" cy="421.7" r="1" fill="#000" fill-rule="nonzero"></circle><circle cx="502" cy="421.7" r="1" fill="#000" fill-rule="nonzero"></circle><circle cx="506.9" cy="421.7" r="1" fill="#000" fill-rule="nonzero"></circle><circle cx="477.9" cy="426.3" r="1" fill="#000" fill-rule="nonzero"></circle><circle cx="482.7" cy="426.3" r="1" fill="#000" fill-rule="nonzero"></circle><circle cx="487.5" cy="426.3" r="1" fill="#000" fill-rule="nonzero"></circle><circle cx="492.4" cy="426.3" r="1" fill="#000" fill-rule="nonzero"></circle><circle cx="497.2" cy="426.3" r="1" fill="#000" fill-rule="nonzero"></circle><circle cx="473.1" cy="430.8" r="1" fill="#000" fill-rule="nonzero"></circle><circle cx="477.9" cy="430.8" r="1" fill="#000" fill-rule="nonzero"></circle><circle cx="482.7" cy="430.8" r="1" fill="#000" fill-rule="nonzero"></circle><circle cx="487.5" cy="430.8" r="1" fill="#000" fill-rule="nonzero"></circle><circle cx="492.4" cy="430.8" r="1" fill="#000" fill-rule="nonzero"></circle><circle cx="468.2" cy="435.4" r="1" fill="#000" fill-rule="nonzero"></circle><circle cx="473.1" cy="435.4" r="1" fill="#000" fill-rule="nonzero"></circle><circle cx="477.9" cy="435.4" r="1" fill="#000" fill-rule="nonzero"></circle><circle cx="482.7" cy="435.4" r="1" fill="#000" fill-rule="nonzero"></circle><circle cx="487.5" cy="435.4" r="1" fill="#000" fill-rule="nonzero"></circle><circle cx="492.4" cy="435.4" r="1" fill="#000" fill-rule="nonzero"></circle></g></svg> 